<?xml version="1.0" standalone="no"?>
<!DOCTYPE svg PUBLIC "-//W3C//DTD SVG 1.1//EN" "http://www.w3.org/Graphics/SVG/1.1/DTD/svg11.dtd" >
<svg xmlns="http://www.w3.org/2000/svg">
<metadata>Generated by IcoMoon</metadata>
<defs>
<font id="icomoon" horiz-adv-x="1024">
<font-face units-per-em="1024" ascent="960" descent="-64" />
<missing-glyph horiz-adv-x="1024" />
<glyph unicode="&#x20;" horiz-adv-x="512" d="" />
<glyph unicode="&#xe900;" glyph-name="icLocation" horiz-adv-x="789" d="M40.96 574.996c0 190.444 156.262 344.044 348.16 344.044s348.16-153.6 348.16-344.044c0-145.428-228.557-440.34-348.16-577.556-119.603 137.216-348.16 432.128-348.16 577.556zM389.12 960c-214.835 0-389.12-172.052-389.12-385.004 0-210.964 389.12-638.996 389.12-638.996s389.12 428.032 389.12 638.996c0 212.951-174.285 385.004-389.12 385.004zM389.12 550.4c-56.525 0-102.4 45.056-102.4 102.4 0 57.324 45.875 102.4 102.4 102.4s102.4-45.076 102.4-102.4c0-57.344-45.875-102.4-102.4-102.4zM389.12 796.16c-79.258 0-143.36-63.488-143.36-143.36 0-79.892 64.102-143.36 143.36-143.36s143.36 63.468 143.36 143.36c0 79.872-64.102 143.36-143.36 143.36z" />
<glyph unicode="&#xe901;" glyph-name="arrow" d="M501.482 304.874l408.962 382.655c20.976 19.626 53.89 18.533 73.516-2.443s18.533-53.89-2.443-73.516l-444.709-416.102c-20.083-18.791-51.324-18.699-71.296 0.209l-439.507 416.102c-20.86 19.749-21.761 52.669-2.011 73.53s52.669 21.761 73.53 2.011l403.958-382.445z" />
<glyph unicode="&#xe902;" glyph-name="call" d="M202.778 897.74c18.058-26.175 114.48-172.532 131.884-199.892 0.16-2.882-0.782-10.198-6.371-20.636-5.764-11.158-23.95-43.577-49.816-88.947l-20.134-35.284 23.487-33.267c17.244-24.734 58.597-78.525 140.17-160.397 82.084-82.224 135.572-123.543 160.001-140.865l33.21-23.341 35.286 20.172c34.009 19.547 75.346 42.953 88.758 50.029 10.714 5.683 18.042 6.116 20.134 6.116 0.319 0 0.463 0 0.798-0.032 24.413-15.369 173.556-114.642 199.885-132.749 0.335-2.561 0-8.149-4.774-15.097-40.555-56.273-98.051-115.010-120.547-123.415-119.749 5.619-287.893 111.184-473.887 297.724-186.010 186.588-291.405 354.925-296.818 474.626 7.967 22.637 66.58 80.671 122.304 120.966 3.976 2.85 9.101 4.515 13.891 4.515 0.942 0 1.916-0.096 2.539-0.224zM149.785 944.023c-1.437-1.089-151.698-108.319-149.766-170.467 5.588-174.517 174.658-379.643 315.658-520.989 140.985-141.314 345.5-310.98 520.174-316.567h1.453c61.136 0 168.75 148.758 169.884 150.247 28.085 40.407 17.883 84.913-7.84 102.972-15.631 11.030-186.633 125.064-207.565 137.904-9.245 5.603-20.262 8.341-32.396 8.341-15.647 0-33.051-4.563-49.991-13.48-16.43-8.677-66.245-37.125-90.69-51.102-21.379 15.113-71.849 53.887-151.522 133.725-79.018 79.246-117.977 130.267-133.161 151.944 13.907 24.446 42.168 74.443 50.79 90.885 16.446 31.026 18.202 62.004 4.95 82.88-12.454 19.707-125.657 189.918-137.328 206.119-11.001 15.305-30.799 23.566-52.195 23.566-16.94 0-34.807-5.155-50.454-15.977z" />
<glyph unicode="&#xe903;" glyph-name="car-rental" d="M800 255.995c-17.664 0-32 14.416-32 32.016s14.336 31.984 32 31.984c17.664 0 32-14.384 32-31.984s-14.336-32.016-32-32.016zM800 384.009c-53.008 0-96-43.215-96-95.998 0-52.799 42.992-95.999 96-95.999s96 43.199 96 95.999c0 52.783-42.992 95.998-96 95.998zM224 255.995c-17.664 0-32 14.416-32 32.016s14.336 31.984 32 31.984c17.664 0 32-14.384 32-31.984s-14.336-32.016-32-32.016zM224 384.009c-53.008 0-96-43.215-96-95.998 0-52.799 42.992-95.999 96-95.999s96 43.199 96 95.999c0 52.783-42.992 95.998-96 95.998zM960 384.009v-191.997c0-35.215-28.656-64.015-64-64.015h-768c-35.344 0-64 28.8-64 64.015v191.997c0 35.183 28.656 63.983 64 63.983h768c35.344 0 64-28.8 64-63.983zM864 31.999c0-17.584-14.336-31.984-32-31.984s-32 14.4-32 31.984v32h64v-32zM192 31.999c0-17.584-14.336-31.984-32-31.984s-32 14.4-32 31.984v32h64v-32zM192 768.003c0 70.383 57.296 127.982 128 127.982h384c70.688 0 128-57.599 128-127.982l51.2-256.012h-742.4l51.2 256.012zM1024 543.99v63.999c0 17.6-14.336 32-32 32h-64c-2.144 0-4.24 0-6.272 0l-25.728 128.014c0 105.582-85.968 191.997-192 191.997h-384c-106.048 0-192-86.415-192-191.997l-25.728-128.014c-2.032 0-4.128 0-6.272 0h-64c-17.664 0-32-14.4-32-32v-63.999c0-17.6 14.336-31.999 32-31.999h44.8l-2.368-11.2c-43.904-20.784-74.432-65.583-74.432-116.782v-320.011h64v-63.983c0-35.215 28.656-64.015 64-64.015h64c35.344 0 64 28.8 64 64.015v63.983h480v-63.983c0-35.215 28.656-64.015 64-64.015h64c35.344 0 64 28.8 64 64.015v63.983h96v320.011c0 51.199-30.528 95.999-74.432 116.782l-2.368 11.2h44.8c17.664 0 32 14.4 32 31.999z" />
<glyph unicode="&#xe904;" glyph-name="conversation" d="M692 322c-11.044 0-20-8.954-20-20v-138c0-55.14-44.86-100-100-100h-215.936c-11.042 0-19.992-8.946-20-19.986l-0.028-39.764-47.736 47.734c-3.090 7.094-10.162 12.016-18.342 12.016h-129.958c-55.14 0-100 44.86-100 100v308c0 55.14 44.86 100 100 100h202c11.044 0 20 8.954 20 20s-8.956 20-20 20h-202c-77.196 0-140-62.804-140-140v-308c0-77.196 62.804-140 140-140h119.716l82.142-82.142c3.826-3.826 8.94-5.858 14.146-5.858 2.574 0 5.172 0.498 7.642 1.52 7.474 3.092 12.348 10.38 12.354 18.466l0.048 68.014h195.952c77.196 0 140 62.804 140 140v138c0 11.046-8.956 20-20 20zM733.31 960h-50.618c-160.288 0-290.692-130.404-290.692-290.692s130.404-290.69 290.69-290.69h50.618c25.018 0 49.78 3.178 73.78 9.458l74.774-74.732c3.826-3.822 8.938-5.854 14.142-5.854 2.578 0 5.178 0.498 7.652 1.524 7.472 3.096 12.344 10.388 12.344 18.476v115.712c31.658 25.638 57.956 58.024 76.412 94.204 20.962 41.092 31.588 85.47 31.588 131.902 0 160.288-130.404 290.692-290.69 290.692zM883.966 468.93c-5.014-3.778-7.966-9.694-7.966-15.976v-77.2l-48.942 48.916c-3.808 3.804-8.916 5.854-14.14 5.854-1.96 0-3.94-0.29-5.872-0.884-23.806-7.316-48.614-11.024-73.736-11.024h-50.618c-138.234 0-250.692 112.46-250.692 250.692s112.46 250.692 250.692 250.692h50.618c138.232 0 250.69-112.46 250.69-250.692 0-79.462-36.46-152.498-100.034-200.378zM798.066 741.158c-2.886 41.87-36.638 75.622-78.51 78.508-23.736 1.63-46.388-6.376-63.726-22.562-17.1-15.962-26.906-38.526-26.906-61.908 0-11.046 8.956-20 20-20s20 8.954 20 20c0 12.518 5.044 24.12 14.2 32.666 9.148 8.538 21.104 12.764 33.684 11.896 22.056-1.52 39.834-19.298 41.354-41.352 1.536-22.274-13.078-41.958-34.746-46.806-17.556-3.928-29.816-19.184-29.816-37.098v-48.050c0-11.046 8.956-20 20-20 11.046 0 20 8.954 19.998 20v46.452c40.3 9.736 67.338 46.612 64.468 88.254zM727.74 541.48c-3.72 3.72-8.88 5.86-14.14 5.86s-10.42-2.14-14.14-5.86c-3.72-3.72-5.86-8.88-5.86-14.14 0-5.28 2.142-10.44 5.86-14.16 3.72-3.72 8.88-5.84 14.14-5.84s10.42 2.12 14.14 5.84c3.72 3.74 5.86 8.88 5.86 14.16 0 5.26-2.142 10.42-5.86 14.14zM550 340h-422c-11.044 0-20-8.954-20-20s8.956-20 20-20h422c11.046 0 20 8.954 20 20s-8.956 20-20 20zM564.138 222.14c-3.718 3.72-8.878 5.86-14.138 5.86s-10.42-2.14-14.14-5.86c-3.722-3.72-5.86-8.88-5.86-14.14s2.14-10.42 5.86-14.14c3.72-3.72 8.88-5.86 14.14-5.86s10.42 2.14 14.138 5.86c3.722 3.72 5.862 8.86 5.862 14.14 0 5.26-2.142 10.42-5.862 14.14zM471.334 228h-343.334c-11.044 0-20-8.954-20-20s8.956-20 20-20h343.334c11.046 0 20 8.954 20 20s-8.956 20-20 20zM420 452h-292c-11.044 0-20-8.954-20-20s8.956-20 20-20h292c11.046 0 20 8.954 20 20s-8.956 20-20 20z" />
<glyph unicode="&#xe905;" glyph-name="edit" d="M764.535 754.275l-15.242-27.531-158.472 95.024 15.242 27.355c25.269 45.448 81.238 60.95 124.993 34.874 43.754-26.235 58.748-84.305 33.479-129.722zM505.299 288.115h-0.016l-60.983-109.597-158.472 95.024 274.494 493.371 158.472-94.864-213.495-383.934zM413.817 123.664l-170.734-116.94 12.262 211.964 158.472-95.024zM761.555 938.707c-72.934 43.848-166.202 17.757-208.311-57.91l-15.242-27.355-289.735-520.87c-0.031 0-0.047 0-0.078-0.144l-45.679-82.066 129.075-77.267c0.062-0.176 0.109-0.176 0.171-0.176l-129.246 77.443-16.328-282.671 52.819-31.691 227.635 156.133-129.199 77.427c0.047-0.16 0.093-0.16 0.124-0.16l129.075-77.267 91.482 164.308-0.016 0.144 259.267 466.016c42.094 75.651 17.12 172.434-55.814 216.107z" />
<glyph unicode="&#xe906;" glyph-name="email" d="M928 94.982h-832c-17.6 0-32 14.293-32 32.083v640.385l422.4-338.962c0.96-1.107 1.6-2.23 2.72-3.208 6.24-6.417 14.56-9.465 22.88-9.288 8.32-0.176 16.64 2.871 22.88 9.288 1.12 0.979 1.76 2.101 2.72 3.208l422.4 338.962v-640.385c0-17.79-14.4-32.083-32-32.083zM901.28 800.657l-389.28-312.477-389.28 312.477h778.56zM1024 833.398c0 8.165-3.040 16.347-9.28 22.619-7.2 7.379-17.12 10.251-26.56 8.807h-952.32c-9.44 1.444-19.36-1.428-26.56-8.807-6.4-6.272-9.28-14.454-9.28-22.795 0 0 0-0.16 0-0.321v-770.163c0-17.63 14.4-31.923 32-31.923h960c17.6 0 32 14.293 32 31.923v770.163c0 0.16 0 0.321 0 0.497z" />
<glyph unicode="&#xe907;" glyph-name="facebook" d="M347.492 625.232h-136.668v-175.039h136.668v-514.192h262.811v516.379h183.354l19.52 172.852h-202.874v98.461c0 40.756 10.46 56.892 60.652 56.892h142.218v179.416h-181.957c-195.557 0-283.724-67.552-283.724-196.924v-137.845z" />
<glyph unicode="&#xe908;" glyph-name="icStrokedTick" d="M512-64c-282.77 0-512 229.23-512 512s229.23 512 512 512c282.77 0 512-229.23 512-512s-229.23-512-512-512zM512-23.040c260.148 0 471.040 210.892 471.040 471.040s-210.892 471.040-471.040 471.040c-260.148 0-471.040-210.892-471.040-471.040s210.892-471.040 471.040-471.040zM355.365 416.501l94.594-66.188 214.76 285.155c14.362 19.069 41.626 23.007 60.897 8.796s23.25-41.191 8.889-60.26l-265.485-352.506-163.904 114.685c-19.623 13.731-24.283 40.603-10.407 60.021s41.032 24.029 60.656 10.298z" />
<glyph unicode="&#xe909;" glyph-name="gift-voucher" d="M503.76 664.951h-125.94c-81.021 0-146.93 66.175-146.93 147.524s65.909 147.524 146.93 147.524c81.021 0 146.93-66.175 146.93-147.524v-126.449l-20.99-21.075zM377.82 917.85c-57.848 0-104.95-47.292-104.95-105.375s47.102-105.375 104.95-105.375h104.95v105.375c0 58.082-47.102 105.375-104.95 105.375zM629.7 664.951h-125.94l-20.99 21.075v126.449c0 81.349 65.909 147.524 146.93 147.524s146.93-66.175 146.93-147.524c0-81.349-65.909-147.524-146.93-147.524zM524.75 707.101h104.95c57.89 0 104.95 47.292 104.95 105.375s-47.060 105.375-104.95 105.375c-57.89 0-104.95-47.292-104.95-105.375v-105.375zM419.8 686.026h41.98v-716.547h-41.98v716.547zM545.74 686.026h41.98v-716.547h-41.98v716.547zM939.849 454.202h-394.108v42.15h394.108c14.189 0 25.692 11.591 25.692 25.838v116.924c0 14.247-11.503 25.838-25.692 25.838h-876.795c-11.628 0-21.074-9.484-21.074-21.159v-126.281c0-11.675 9.446-21.159 21.074-21.159h398.726v-42.15h-398.726c-34.759 0-63.054 28.409-63.054 63.309v126.281c0 34.9 28.295 63.309 63.054 63.309h876.795c37.278 0 67.672-30.516 67.672-67.988v-116.924c0-37.471-30.394-67.988-67.672-67.988zM871.169-51.596h-724.239c-34.717 0-62.97 28.367-62.97 63.225v484.596h41.98v-484.596c0-11.591 9.404-21.075 20.99-21.075h724.239c5.751 0 10.411 4.679 10.411 10.453v474.27h41.98v-474.27c0-28.999-23.509-52.603-52.391-52.603z" />
<glyph unicode="&#xe90a;" glyph-name="group-bookings" d="M979.737 307.056c-18.882 17.12-148.017 50.704-214.264 67.184 61.927 59.536 98.731 159.68 98.731 254.416 0 147.664-40.805 267.344-224.185 267.344-58.087 0-101.771-12.16-134.415-33.12 45.445-3.040 81.129-14.24 108.812-32.16 8.161 0.816 16.482 1.44 25.603 1.44 133.295 0 159.858-92 159.858-205.44 0-82.384-32.644-172.96-88.17-216.48v-42.080l8.801-28.96c66.568-17.264 178.9-47.2 206.103-59.2 38.084-16.944 50.246-102.56 0-120.16l-97.611 0.32c3.68-20.32 4-41.6 0-61.6 159.218 5.28 171.859 16.496 171.859 16.496 42.405 57.6 21.282 153.6-21.122 192zM670.582 63.84l-290.593 0.816c0 0-283.232-0.656-283.392-0.816-57.286 20.336-28.163 103.040 9.921 120 28.963 12.96 141.296 46.080 197.942 62.56l7.681 25.76v43.536c-55.366 46.544-88.17 143.664-88.17 231.824 0 121.6 26.723 220.016 160.018 220.016s159.858-98.416 159.858-220.016c0-88.32-32.644-185.28-88.17-231.824v-43.536l8.801-28.96c66.568-17.264 178.9-47.2 206.103-59.36 38.084-16.784 50.246-102.4 0-120zM507.044 278.896c63.367 62.56 101.131 169.6 101.131 270.864 0 155.856-40.805 282.080-224.185 282.080-183.541 0-224.185-126.224-224.185-282.080 0-101.6 37.764-208.96 101.611-271.52-67.048-16.16-196.982-49.44-216.824-67.184-42.565-38.4-64.007-134.4-21.442-192 0 0 24.323-19.056 362.441-19.056s359.241 19.056 359.241 19.056c42.405 57.6 21.282 153.6-21.122 192-19.042 17.28-151.057 51.504-216.664 67.84z" />
<glyph unicode="&#xe90b;" glyph-name="hotels1" d="M128 128v64h64v-64h-64zM384 512v64h256v-64h-256zM832 512v64h64v-64h-64zM384 320v64h256v-64h-256zM768 0v704h192v-704h-192zM704 768v-768h-64v192h-256v-192h-64v896h384v-128zM448 0v128h128v-128h-128zM64 0v704h192v-704h-192zM768 768v192h-512v-192h-256v-832h1024v832h-256zM832 128h64v64h-64v-64zM832 320h64v64h-64v-64zM128 320h64v64h-64v-64zM128 512h64v64h-64v-64zM384 704h256v64h-256v-64z" />
<glyph unicode="&#xe90c;" glyph-name="indigo-logo" d="M762.434 344.142c-26.523-22.054-57.747-33.075-93.589-33.072-38.47 0-71.787 13.196-99.842 39.53-27.815 26.611-41.75 58.99-41.75 97.006 0 38.023 13.928 70.41 41.742 97.022 28.054 26.834 61.368 40.303 99.844 40.303 22.778 0 42.782-3.653 60.019-11.042 17.225-7.116 34.599-19.282 52.143-36.398l1.442-1.403-26.956-28.366-1.544 1.262c-17.138 13.966-30.315 23.339-39.6 28.234-13.766 7.073-28.913 10.622-45.499 10.618-28.641 0.003-52.425-9.776-71.469-29.329-19.089-19.595-28.62-43.178-28.627-70.901 0.007-27.452 9.531-50.915 28.627-70.507 19.044-19.564 42.824-29.328 71.464-29.328 26.466-0.006 48.765 7.473 67.047 22.366 18.961 15.403 28.671 35.124 29.192 59.301h-93.357v36.72l135.264 0.006v-24.169c0-40.524-14.831-73.208-44.551-97.854zM995.303 338.602c-19.097-17.85-42.043-26.787-68.717-26.787-26.401 0-49.219 8.944-68.316 26.787-19.14 17.896-28.705 40.675-28.705 68.181 0 27.239 9.429 49.886 28.313 67.78 19.089 18.118 42.043 27.19 68.709 27.192 26.436 0 49.236-9.069 68.333-27.176 19.396-17.895 29.081-40.536 29.081-67.799 0-27.502-9.549-50.274-28.697-68.177zM968.1 449.932c-10.837 11.053-24.618 16.602-41.514 16.602-17.143 0-31.043-5.55-41.881-16.606-10.573-10.775-15.94-25.095-15.94-43.15 0-17.793 5.487-32.117 16.324-43.164 10.837-11.054 24.618-16.599 41.497-16.601 16.896 0.002 30.668 5.546 41.514 16.598 10.837 11.050 16.324 25.381 16.324 43.167 0 17.779-5.487 32.102-16.324 43.153zM498.709 520.761c-3.842-4.283-9.486-6.271-16.536-6.268-6.618-0.003-12.223 2.088-16.518 6.268-3.941 4.387-5.956 9.676-5.956 15.651 0 5.973 1.974 11.114 5.953 15.263 4.069 4.258 9.679 6.276 16.528 6.279 6.647-0.003 12.108-2.172 16.148-6.65 4.193-4.119 6.332-9.112 6.332-14.892 0-6.193-1.952-11.464-5.95-15.651zM463.163 315.553v182.457h38.038v-182.454l-38.038-0.003zM410.422 339.436c-17.599-18.437-40.33-27.622-68.023-27.622-29.241 0-53.013 9.816-71.125 29.525-17.041 18.655-25.514 42.025-25.517 69.941 0.003 25.234 8.793 46.622 26.357 64.002 17.809 17.62 39.083 26.471 63.753 26.471 19.532 0 37.18-4.198 52.89-12.62l1.094-0.587 0.003-39.58-3.301 2.19c-6.233 4.127-13.658 7.69-22.219 10.647-8.277 3.168-15.855 4.732-22.705 4.732-17.702 0-31.713-5.454-42.272-16.22-10.578-10.797-15.936-25.103-15.936-43.166 0-17.786 5.47-32.243 16.332-43.549 11.088-11.039 25.244-16.583 42.643-16.583 16.291 0 29.674 5.996 40.293 18.022 10.806 11.988 16.383 29.541 16.383 52.976v162.417h38.037v-168.408c0-29.64-8.843-53.913-26.687-72.587zM185.127 315.556v106.209c0 13.009-4.206 23.614-12.497 31.931-8.038 8.561-17.999 12.838-29.968 12.838-11.423 0-21.393-4.241-29.995-12.861-8.279-8.321-12.46-18.9-12.46-31.911v-106.206h-37.652v106.209c0 23.442 7.463 42.715 22.498 57.639 15.045 14.929 34.307 22.35 57.609 22.35 23.064-0.002 42.318-7.433 57.597-22.336 15.305-14.92 22.907-34.205 22.911-57.653l-0.003-106.209h-38.039zM0 315.556v264.875h39.957l0.004-264.875h-39.961z" />
<glyph unicode="&#xe90d;" glyph-name="information1" d="M493.527 630.982c34.463 0 62.4 27.937 62.4 62.4s-27.937 62.4-62.4 62.4c-34.463 0-62.4-27.937-62.4-62.4s27.937-62.4 62.4-62.4zM453.818 574.255h90.764v-363.055h45.382v-22.691h-181.527v22.691h45.382v340.364h-45.382v22.691h45.382zM499.2 6.982v0c250.637 0 453.818 203.181 453.818 453.818s-203.181 453.818-453.818 453.818c-250.637 0-453.818-203.181-453.818-453.818s203.181-453.818 453.818-453.818v0zM499.2-38.4v0c-275.701 0-499.2 223.499-499.2 499.2s223.499 499.2 499.2 499.2c275.701 0 499.2-223.499 499.2-499.2s-223.499-499.2-499.2-499.2v0z" />
<glyph unicode="&#xe90e;" glyph-name="instagram" d="M902.281 960h-780.562c-67.228 0-121.719-54.352-121.719-121.44v-781.12c0-67.060 54.492-121.44 121.719-121.44h780.562c67.228 0 121.719 54.38 121.719 121.44v781.12c0 67.088-54.492 121.44-121.719 121.44v0zM736.013 800.017c0 17.652 14.328 31.98 31.98 31.98h95.996c17.68 0 32.008-14.328 32.008-31.98v-96.024c0-17.652-14.328-31.98-32.008-31.98h-95.996c-17.652 0-31.98 14.328-31.98 31.98v96.024zM513.187 643.273c108.76 0 196.935-87.98 196.935-196.46 0-108.508-88.175-196.46-196.935-196.46-108.732 0-196.907 87.952-196.907 196.46 0 108.48 88.175 196.46 196.907 196.46v0zM928.004 64.003c0-17.652-14.328-32.008-32.008-32.008h-767.993c-17.68 0-32.008 14.356-32.008 32.008v480.006h128.003c-16.674-23.992-22.316-68.764-22.316-97.197 0-171.351 139.762-310.778 311.504-310.778 171.77 0 311.532 139.427 311.532 310.778 0 28.433-4.050 72.506-24.718 97.197h128.003v-480.006z" />
<glyph unicode="&#xe90f;" glyph-name="international-destinations" d="M630.362 58.579c39.093 56.26 68.969 136.614 85.594 231.484h169.924c-49.393-109.568-142.396-193.476-255.518-231.484zM337.438 290.063h312.922c-28.612-150.046-92.1-253.651-156.491-253.651-64.331 0-127.819 103.605-156.431 253.651zM271.842 290.063c16.625-94.871 46.502-175.224 85.655-231.424-113.122 37.948-206.185 121.856-255.518 231.424h169.864zM79.029 577.807h183.838c-3.855-36.262-5.783-73.788-5.783-111.736 0-37.768 1.928-75.294 5.783-111.797h-183.838c-9.818 36.382-14.758 73.969-14.758 111.797 0 37.888 4.939 75.415 14.758 111.736zM357.496 873.502c-39.153-56.2-69.030-136.493-85.655-231.364h-169.864c49.333 109.508 142.396 193.416 255.518 231.364zM650.36 642.138h-312.922c28.612 150.046 92.1 253.591 156.491 253.591 64.331 0 127.819-103.544 156.431-253.591zM715.957 642.138c-16.625 94.871-46.502 175.164-85.594 231.364 113.122-37.948 206.125-121.916 255.518-231.364h-169.924zM666.504 466.071c0-37.527-2.168-75.053-6.385-111.797h-332.439c-4.216 36.623-6.325 74.15-6.325 111.797 0 37.707 2.108 75.234 6.325 111.736h332.439c4.216-36.623 6.385-74.21 6.385-111.736zM724.932 577.807h183.898c9.818-36.322 14.758-73.848 14.758-111.736 0-37.828-4.939-75.415-14.758-111.797h-183.898c3.855 36.382 5.843 73.909 5.843 111.797 0 37.948-1.988 75.475-5.843 111.736zM493.929 960c-272.384 0-493.929-221.606-493.929-493.929 0-272.384 221.545-493.99 493.929-493.99 272.324 0 493.929 221.606 493.929 493.99 0 272.324-221.606 493.929-493.929 493.929z" />
<glyph unicode="&#xe910;" glyph-name="linkedin" d="M587.101 487.587h-0.954c0.279 0 0.652 0 0.954 0zM877.335 117.504h-143.616v223.441c0 55.831-16.221 95.418-68.212 95.418-39.657 0-63.302-25.6-73.681-51.2-3.793-9.309-4.724-20.922-4.724-32.582v-235.078h-148.177c0 0 1.885 391.005 0 430.569h148.177v-60.486c19.060 30.231 53.108 69.818 129.42 69.818 94.511 0 160.815-72.192 160.815-200.169v-239.732zM190.068 117.504v432.896h138.775v-432.896h-138.775zM252.323 741.236c42.031 0 67.91-32.582 68.701-72.145 0-41.868-26.671-72.145-69.516-72.145h-0.791c-41.263 0-67.91 30.278-67.91 72.145 0 39.564 27.485 72.145 69.516 72.145zM926.464 960h-828.951c-53.853 0-97.513-44.218-97.513-97.745v-828.486c0-53.527 43.66-97.769 97.513-97.769h828.951c53.876 0 97.536 44.241 97.536 97.769v828.486c0 53.527-43.66 97.745-97.536 97.745z" />
<glyph unicode="&#xe911;" glyph-name="close" d="M513.522 544.171l342.248 342.248c26.799 26.799 70.205 26.843 97.37-0.323 26.977-26.977 27.112-70.581 0.323-97.37l-342.248-342.248 342.248-342.248c26.799-26.799 26.843-70.205-0.323-97.37-26.977-26.977-70.581-27.112-97.37-0.323l-342.248 342.248-342.248-342.248c-26.799-26.799-70.205-26.843-97.37 0.322-26.977 26.977-27.112 70.581-0.322 97.37l342.248 342.248-342.248 342.248c-26.799 26.799-26.843 70.205 0.322 97.37 26.977 26.977 70.581 27.112 97.37 0.322l342.248-342.248z" />
<glyph unicode="&#xe912;" glyph-name="overflow-menu" d="M512 704c70.4 0 128 57.6 128 128s-57.6 128-128 128c-70.4 0-128-57.6-128-128s57.6-128 128-128v0zM512 576c-70.4 0-128-57.6-128-128s57.6-128 128-128c70.4 0 128 57.6 128 128s-57.6 128-128 128v0zM512 192c-70.4 0-128-57.6-128-128s57.6-128 128-128c70.4 0 128 57.6 128 128s-57.6 128-128 128v0z" />
<glyph unicode="&#xe913;" glyph-name="resume" d="M828.014 662.5c11.044 0 20 8.954 20 20v217.5c0 33.084-26.916 60-60 60h-728c-33.084 0-60-26.916-60-60v-904c0-33.084 26.916-60 60-60h728c33.084 0 60 26.916 60 60v147.344c0 11.046-8.956 20-20 20s-20-8.954-20-20v-147.344c0-11.028-8.972-20-20-20h-728c-11.028 0-20 8.972-20 20v904c0 11.028 8.972 20 20 20h728c11.028 0 20-8.972 20-20v-217.5c0-11.046 8.956-20 20-20zM424.014 852c-101.458 0-184-82.542-184-184 0-52.634 22.22-100.17 57.764-133.738 0.666-0.712 1.374-1.386 2.148-2 32.742-29.958 76.316-48.26 124.086-48.26s91.344 18.304 124.086 48.26c0.774 0.614 1.482 1.29 2.148 2 35.548 33.568 57.768 81.104 57.768 133.738 0 101.458-82.542 184-184 184zM424.014 524c-32.658 0-62.798 10.944-86.982 29.336 17.578 31.17 50.38 50.664 86.982 50.664s69.404-19.494 86.982-50.664c-24.186-18.392-54.324-29.336-86.982-29.336zM392.014 676v13c0 17.644 14.356 32 32 32s32-14.356 32-32v-13c0-17.644-14.356-32-32-32s-32 14.356-32 32zM539.894 582.634c-14.75 21.876-35.192 38.89-58.926 49.394 9.42 12.174 15.046 27.424 15.046 43.972v13c0 39.702-32.298 72-72 72s-72-32.298-72-72v-13c0-16.548 5.626-31.798 15.046-43.972-23.734-10.504-44.176-27.518-58.926-49.394-17.658 23.906-28.12 53.432-28.12 85.366 0 79.402 64.598 144 144 144s144-64.598 144-144c0-31.934-10.462-61.46-28.12-85.366zM532.014 84h-108c-11.044 0-20-8.954-20-20s8.956-20 20-20h108c11.044 0 20 8.954 20 20s-8.956 20-20 20zM532.014 196h-284c-11.044 0-20-8.954-20-20s8.956-20 20-20h284c11.044 0 20 8.954 20 20s-8.956 20-20 20zM532.014 308h-284c-11.044 0-20-8.954-20-20s8.956-20 20-20h284c11.044 0 20 8.954 20 20s-8.956 20-20 20zM176.732 414.14c-3.718 3.72-8.878 5.86-14.158 5.86-5.262 0-10.422-2.14-14.14-5.86-3.72-3.72-5.86-8.88-5.86-14.14s2.138-10.42 5.86-14.14c3.74-3.72 8.878-5.86 14.14-5.86 5.28 0 10.42 2.14 14.158 5.86 3.72 3.72 5.862 8.88 5.862 14.14s-2.14 10.42-5.862 14.14zM176.732 302.14c-3.738 3.72-8.878 5.86-14.158 5.86-5.262 0-10.4-2.14-14.14-5.86-3.72-3.72-5.86-8.88-5.86-14.14s2.138-10.42 5.86-14.14c3.74-3.72 8.878-5.86 14.14-5.86 5.28 0 10.42 2.14 14.158 5.86 3.72 3.72 5.862 8.88 5.862 14.14s-2.14 10.42-5.862 14.14zM176.732 190.14c-3.738 3.72-8.878 5.86-14.158 5.86-5.262 0-10.4-2.14-14.14-5.86-3.72-3.72-5.86-8.88-5.86-14.14s2.138-10.42 5.86-14.14c3.718-3.72 8.878-5.86 14.14-5.86 5.28 0 10.44 2.14 14.158 5.86 3.72 3.72 5.862 8.88 5.862 14.14s-2.14 10.42-5.862 14.14zM532.014 420h-284c-11.044 0-20-8.954-20-20s8.956-20 20-20h284c11.044 0 20 8.954 20 20s-8.956 20-20 20zM982.004 699.36c-19.43 11.218-42.066 14.198-63.742 8.392-21.672-5.808-39.788-19.708-51.004-39.138l-251.684-435.926c-1.378-2.39-2.25-5.040-2.556-7.782l-17.716-158.688c-0.88-7.896 2.996-15.566 9.876-19.54 3.106-1.792 6.556-2.68 9.998-2.68 4.184 0 8.352 1.31 11.862 3.896l128.568 94.688c2.222 1.636 4.082 3.714 5.46 6.104l251.682 435.926c23.16 40.112 9.368 91.588-30.744 114.748zM640.126 107.212l9.252 82.864 57.884-33.42-67.136-49.444zM736.426 186.008l-76.21 44 201.97 349.82 76.21-44-201.97-349.82zM978.108 604.614l-19.714-34.146-76.21 44 19.714 34.146c5.876 10.178 15.364 17.458 26.716 20.5 11.356 3.044 23.212 1.48 33.388-4.396 10.178-5.876 17.458-15.364 20.5-26.716s1.482-23.21-4.394-33.388z" />
<glyph unicode="&#xe914;" glyph-name="rupee" d="M839.536 919.654c0 22.285-18.061 40.346-40.346 40.346h-612.557c-22.285 0-40.346-18.061-40.346-40.346s18.061-40.346 40.346-40.346h199.778c60.252 0 117.383-29.519 152.828-78.959 16.696-23.294 27.89-49.101 33.948-75.539h-386.554c-22.285 0-40.346-18.061-40.346-40.346s18.061-40.346 40.346-40.346h388.010c-1.442-6.966-3.223-13.867-5.506-20.63-16.785-49.787-54.941-86.099-107.438-102.253-79.905-24.57-169.14-21.466-255.554-18.424l-18.156 0.63c-16.942 0.867-32.514-9.551-38.818-25.358-6.304-15.792-2.049-33.822 10.654-45.122l497.648-442.55c7.691-6.84 17.258-10.197 26.793-10.197 11.127 0 22.191 4.57 30.165 13.538 14.815 16.643 13.317 42.143-3.341 56.958l-415.332 369.344c63.388 0.095 127.265 4.87 189.66 24.050 77.982 23.987 134.877 78.534 160.188 153.6 5.102 15.13 8.254 30.709 10.471 46.414h143.114c22.285 0 40.346 18.061 40.346 40.346s-18.061 40.346-40.346 40.346h-143.571c-6.933 43.103-24.046 85.24-50.786 122.552-8.268 11.531-17.632 21.994-27.447 31.946h221.803c22.285 0 40.346 18.061 40.346 40.346z" />
<glyph unicode="&#xe915;" glyph-name="search" d="M1005.209 40.298l-280.357 280.466c50.254 68.542 77.175 151.407 76.8 236.398-0.959 221.853-180.398 401.553-402.249 402.834-106.168 0.48-208.119-41.52-283.141-116.645s-116.882-177.133-116.256-283.301c0.959-221.873 180.414-401.589 402.286-402.871 85.337-0.37 168.505 26.865 237.093 77.641l0.293 0.219 280.101-280.247c15.144-15.888 37.71-22.319 58.954-16.801s37.829 22.116 43.328 43.365c5.499 21.249-0.951 43.809-16.852 58.94v0zM402 237.491c-177.487 1.021-321.049 144.779-321.829 322.267-0.479 84.923 33.012 166.513 93.018 226.609s141.546 93.708 226.47 93.355c177.487-1.021 321.049-144.779 321.829-322.267 0.479-84.923-33.012-166.513-93.018-226.609s-141.546-93.708-226.47-93.355z" />
<glyph unicode="&#xe916;" glyph-name="sixe-sme" d="M360.727 894.836c-25.384 0-46.545-22.573-46.545-49.648v-74.473h-209.455c-57.616 0-104.727-50.252-104.727-111.709v-546.134c0-61.457 47.111-111.709 104.727-111.709h814.545c57.616 0 104.727 50.252 104.727 111.709v546.134c0 61.457-47.111 111.709-104.727 111.709h-209.455v74.473c0 27.076-21.162 49.648-46.545 49.648h-302.545zM360.727 845.188h302.545v-74.473h-302.545v74.473zM104.727 721.067h69.455v-670.255h-69.455c-32.635 0-58.182 27.25-58.182 62.061v546.134c0 34.811 25.565 63.23 58.182 62.061zM220.728 721.067h582.545v-670.255h-582.545v670.255zM849.819 721.067h69.454c32.635 0 58.182-27.25 58.182-62.061v-546.134c0-34.811-25.617-59.753-58.182-62.061h-69.454v670.255z" />
<glyph unicode="&#xe917;" glyph-name="sixe-special" d="M1013.484 918.582c0-22.874-18.441-41.418-41.19-41.418s-41.19 18.543-41.19 41.418c0 22.874 18.441 41.418 41.19 41.418s41.19-18.543 41.19-41.418zM920.807 825.393c0-22.874-18.441-41.418-41.19-41.418s-41.19 18.543-41.19 41.418c0 22.874 18.441 41.418 41.19 41.418s41.19-18.543 41.19-41.418zM828.13 732.204c0-22.874-18.441-41.418-41.19-41.418s-41.19 18.543-41.19 41.418c0 22.874 18.441 41.418 41.19 41.418s41.19-18.543 41.19-41.418zM828.13 602.774c0-22.874-18.441-41.418-41.19-41.418s-41.19 18.543-41.19 41.418c0 22.874 18.441 41.418 41.19 41.418s41.19-18.543 41.19-41.418zM828.13 478.521c0-22.874-18.441-41.418-41.19-41.418s-41.19 18.543-41.19 41.418c0 22.874 18.441 41.418 41.19 41.418s41.19-18.543 41.19-41.418zM828.13 354.269c0-22.874-18.441-41.418-41.19-41.418s-41.19 18.543-41.19 41.418c0 22.874 18.441 41.418 41.19 41.418s41.19-18.543 41.19-41.418zM828.13 230.016c0-22.874-18.441-41.418-41.19-41.418s-41.19 18.543-41.19 41.418c0 22.874 18.441 41.418 41.19 41.418s41.19-18.543 41.19-41.418zM699.412 732.204c0-22.874-18.441-41.418-41.19-41.418s-41.19 18.543-41.19 41.418c0 22.874 18.441 41.418 41.19 41.418s41.19-18.543 41.19-41.418zM575.842 732.204c0-22.874-18.441-41.418-41.19-41.418s-41.19 18.543-41.19 41.418c0 22.874 18.441 41.418 41.19 41.418s41.19-18.543 41.19-41.418zM447.124 732.204c0-22.874-18.441-41.418-41.19-41.418s-41.19 18.543-41.19 41.418c0 22.874 18.441 41.418 41.19 41.418s41.19-18.543 41.19-41.418zM323.554 732.204c0-22.874-18.441-41.418-41.19-41.418s-41.19 18.543-41.19 41.418c0 22.874 18.441 41.418 41.19 41.418s41.19-18.543 41.19-41.418zM704.56 607.951c0-22.874-18.441-41.418-41.19-41.418s-41.19 18.543-41.19 41.418c0 22.874 18.441 41.418 41.19 41.418s41.19-18.543 41.19-41.418zM611.883 514.762c0-22.874-18.441-41.418-41.19-41.418s-41.19 18.543-41.19 41.418c0 22.874 18.441 41.418 41.19 41.418s41.19-18.543 41.19-41.418zM524.355 426.749c0-22.874-18.441-41.418-41.19-41.418s-41.19 18.543-41.19 41.418c0 22.874 18.441 41.418 41.19 41.418s41.19-18.543 41.19-41.418zM436.826 338.737c0-22.874-18.441-41.418-41.19-41.418s-41.19 18.543-41.19 41.418c0 22.874 18.441 41.418 41.19 41.418s41.19-18.543 41.19-41.418zM344.149 245.548c0-22.874-18.441-41.418-41.19-41.418s-41.19 18.543-41.19 41.418c0 22.874 18.441 41.418 41.19 41.418s41.19-18.543 41.19-41.418zM215.431 245.548c0-22.874-18.441-41.418-41.19-41.418s-41.19 18.543-41.19 41.418c0 22.874 18.441 41.418 41.19 41.418s41.19-18.543 41.19-41.418zM91.861 245.548c0-22.874-18.441-41.418-41.19-41.418s-41.19 18.543-41.19 41.418c0 22.874 18.441 41.418 41.19 41.418s41.19-18.543 41.19-41.418zM349.298 121.295c0-22.874-18.441-41.418-41.19-41.418s-41.19 18.543-41.19 41.418c0 22.874 18.441 41.418 41.19 41.418s41.19-18.543 41.19-41.418zM349.298-8.135c0-22.874-18.441-41.418-41.19-41.418s-41.19 18.543-41.19 41.418c0 22.874 18.441 41.418 41.19 41.418s41.19-18.543 41.19-41.418z" />
<glyph unicode="&#xe918;" glyph-name="sms" d="M304.896 272.656l-80.896-48.496v84c-96.304 57.136-160 155.84-160 268.16 0 176.8 157.6 320 352 320s352-143.2 352-320c0-176.8-157.6-319.984-352-319.984-38.848 0-76.176 5.744-111.104 16.32zM832 575.856c0 212.144-186.256 384.144-416 384.144-229.76 0-416-172-416-384.144 0-123.056 62.656-232.496 160-302.736v-177.12l153.312 107.36c32.848-7.664 67.248-11.84 102.688-11.84 229.744 0 416 172.176 416 384.336zM832.768 771.056c25.168-39.056 43.584-81.76 53.824-127.2 45.984-54.080 73.408-121.92 73.408-195.52 0-112.336-63.712-211.040-160-268.176v-116.16l-123.104 70.4c-22.288-3.984-45.312-6.080-68.896-6.080-32.4 0-63.728 4-93.52 11.536-36.768-7.696-75.056-11.856-114.48-11.856-7.904 0-15.76 0.32-23.584 0.656 66.208-41.136 145.856-65.136 231.584-65.136 22.72 0 44.992 1.776 66.72 4.976l189.28-132.496v209.136c97.344 70.224 160 179.664 160 302.704 0 135.68-76.24 254.88-191.232 323.216z" />
<glyph unicode="&#xe919;" glyph-name="student-discounts" d="M259.427-49.552h500.581c80.602 0 145.649 58.962 145.649 130.868l-59.391 680.225h-142.821v1.438c0 109.296-86.258 197.021-193.728 197.021s-193.728-87.725-193.728-197.021v-1.438h-142.821l-59.391-678.787v-1.438c0-71.905 65.047-130.868 145.649-130.868zM362.654 762.979c0 81.972 66.461 149.563 147.063 149.563s147.063-67.591 147.063-149.563v-1.438l-294.127 1.438zM215.591 714.083h100.399v-89.163h46.664v89.163h292.713v-89.163h46.664v89.163h100.399l55.149-634.206c0-46.019-45.25-81.972-98.985-81.972h-500.581c-53.735 0-98.985 37.391-98.985 81.972l56.563 634.206zM348.513 194.926l289.884 294.812 33.938-34.515-289.884-294.812-33.938 34.515zM559.21 288.403c-32.524-33.076-32.524-87.725 0-120.801 16.969-17.257 38.18-24.448 59.391-24.448s43.836 8.629 59.391 24.448c32.524 33.076 32.524 87.725 0 120.801-15.555 15.819-36.766 24.448-59.391 24.448s-43.836-8.629-59.391-24.448zM645.468 200.679c-14.141-14.381-38.18-14.381-52.321 0s-14.141 38.829 0 53.21c14.141 14.381 38.18 14.381 52.321 0s14.141-38.829 0-53.21zM341.443 361.747c16.969-17.257 38.18-24.448 59.391-24.448s43.836 8.629 59.391 24.448c32.524 33.076 32.524 87.725 0 120.801s-86.258 33.076-118.782 0c-32.524-33.076-32.524-87.725 0-120.801zM373.967 449.472c14.141 14.381 38.18 14.381 52.321 0s14.141-38.829 0-53.21c-14.141-14.381-38.18-14.381-52.321 0s-14.141 37.391 0 53.21z" />
<glyph unicode="&#xe91a;" glyph-name="temperature" d="M548.971 714.933v108.383c0 39.781-62.512 39.781-62.512 0v-108.383c0-39.781 62.512-39.781 62.512 0v0 0zM143.074 376.144h-109.83c-40.317 0-40.317-61.681 0-61.681h109.83c40.305 0 40.305 61.681 0 61.681v0 0zM807.388 587.47c25.886 25.565 51.772 51.119 77.657 76.661 28.529 28.15-15.681 71.773-44.211 43.623-25.886-25.565-51.772-51.119-77.657-76.661-28.529-28.15 15.681-71.773 44.211-43.623v0 0zM256.786 631.117c-25.898 25.542-51.795 51.095-77.669 76.637-28.529 28.15-72.728-15.461-44.211-43.623 25.898-25.542 51.795-51.095 77.669-76.637 28.541-28.138 72.74 15.461 44.211 43.623v0 0zM750.532 492.222c-75.657 106.844-215.314 158.609-340.444 104.094-123.106-53.621-181.462-174.235-163.507-302.825 3.513-25.189 36.638-26.658 52.248-13.605 17.587 14.709 35.566 20.854 57.308 25.283 35.447 2.596 83.516-1.386 94.589-41.649 8.156-29.607 51.986-29.313 60.273 0 27.196 96.117 101.424 193.832 212.54 182.294 22.957-2.397 39.865 28.221 26.993 46.408v0zM472.028 337.256c-32.661 24.825-78.717 33.061-120.701 29.207-1.191-0.117-2.239-0.423-3.346-0.646-1.631-0.082-3.239-0.129-4.965-0.458-13.717-2.643-26.195-6.274-37.959-11.044 9.514 172.637 221.577 260.823 352.435 149.633-84.266-18.187-148.778-87.529-185.463-166.692v0zM955.499 252.159c25.243 103.049-34.102 197.779-136.728 235.869-153.421 56.935-285.232-19.033-346.743-150.96-32.673 24.813-78.729 33.155-120.701 29.301-1.465-0.141-2.762-0.458-4.132-0.74-1.381-0.070-2.727-0.023-4.191-0.27-136.847-23.756-188.44-208.717-76.609-295.94 31.684-24.719 67.715-26.729 105.853-26.729h528.289c128.929-0.023 155.636 169.112 54.963 209.469v0zM901.846 103.713c-18.753-1.116-37.936-2.303-56.713-2.303h-501.772c-46.818 0-70.335 47.923-74.466 88.41-6.073 59.508 30.494 102.966 87.385 114.21 35.435 2.573 83.373-0.881 94.446-41.086 8.156-29.607 51.986-29.031 60.273 0.282 10.252 36.245 28.22 70.258 49.2 101.474 55.117 81.983 137.395 92.909 228.697 68.401 92.041-24.719 131.274-108.994 96.673-194.29-7.99-19.703 11.812-39.206 30.137-40.181 67.024-3.56 44.925-91.429-13.86-94.918v0z" />
<glyph unicode="&#xe91b;" glyph-name="twitter" d="M1024 751.945c-37.674-15.994-78.165-26.806-120.661-31.66 43.368 24.884 76.686 64.284 92.369 111.237-40.595-23.042-85.554-39.774-133.408-48.789-38.32 39.077-92.921 63.49-153.346 63.49-135.605 0-235.291-121.114-204.643-246.878-174.602 8.383-329.405 88.433-433.020 210.072-55.033-90.35-28.545-208.59 65.014-268.436-34.433 1.042-66.836 10.088-95.155 25.152-2.279-93.154 67.47-180.26 168.5-199.689-29.567-7.7-61.952-9.462-94.869-3.442 26.728-79.877 104.319-138.007 196.25-139.627-88.325-66.244-199.568-95.833-311.030-83.261 92.97-57.046 203.401-90.336 322.041-90.336 390.045 0 610.411 315.299 597.129 598.087 41.052 28.347 76.666 63.759 104.831 104.080v0z" />
<glyph unicode="&#xe91c;" glyph-name="user" horiz-adv-x="833" d="M407.219 896.488c-133.072 0-241.331-108.258-241.331-241.331s108.258-241.307 241.331-241.307c133.049 0 241.307 108.234 241.307 241.307s-108.258 241.331-241.307 241.331zM750.925-59.261v65.893c0 189.535-154.195 343.707-343.707 343.707s-343.731-154.172-343.731-343.707v-65.893h-63.488v65.893c0 168.15 101.185 316.773 257.81 378.547l4.644 1.834-4.358 2.453c-96.042 54.105-155.696 155.934-155.696 265.692 0 168.103 136.74 304.842 304.819 304.842s304.819-136.74 304.819-304.842c0-109.759-59.654-211.587-155.696-265.692l-4.358-2.453 4.644-1.834c156.624-61.773 257.81-210.396 257.81-378.547v-65.893h-63.512z" />
<glyph unicode="&#xe91d;" glyph-name="swap" horiz-adv-x="862" d="M131.079 257.116l141.137 159.592c12.817 14.493 11.458 36.632-3.034 49.449s-36.632 11.458-49.449-3.034l-217.667-246.129 217.648-246.51c12.805-14.503 34.943-15.88 49.447-3.075s15.88 34.943 3.075 49.447l-150.27 170.196h597.213c19.347 0 35.032 15.684 35.032 35.032s-15.684 35.032-35.032 35.032h-588.1zM742.1 672.105l-150.27-170.196c-12.805-14.503-11.429-36.641 3.075-49.447s36.641-11.429 49.447 3.075l217.648 246.51-217.667 246.129c-12.817 14.493-34.956 15.852-49.449 3.034s-15.852-34.956-3.034-49.449l141.137-159.592h-588.1c-19.347 0-35.032-15.684-35.032-35.032s15.684-35.032 35.032-35.032h597.213z" />
<glyph unicode="&#xe91e;" glyph-name="icAdditionalServices" d="M288.604 43.383l54.476-52.708c4.289-4.129 11.106-4.096 15.221-0.009l113.399 113.178c8.006 7.99 20.973 7.978 28.963-0.028s7.978-20.973-0.028-28.963l-113.435-113.214c-19.985-19.848-52.238-20.006-72.565-0.436l-59.046 57.13c-11.071 10.705-13.151 27.566-5.225 40.677 9.126 15.114 14.014 32.483 14.014 50.617 0 54.837-44.814 99.351-100.115 99.351-19.228 0-37.665-5.406-53.558-15.414-12.871-8.108-29.627-6.459-40.602 4.152l-54.36 52.586c-20.782 20.031-21.005 53.115-0.534 73.58l614.968 610.889c19.861 19.632 51.858 20.036 72.157 0.884l60.87-57.437c11.24-10.593 13.524-27.482 5.681-40.706-10.247-17.308-14.98-37.371-13.347-58.179 3.621-46.222 40.369-84.662 86.64-90.491 24.498-3.087 48.349 2.565 68.122 15.535 12.777 8.377 29.651 6.943 40.765-3.56l55.451-52.3c21.218-20.030 21.604-53.631 0.448-74.445l-176.615-165.546c-8.252-7.735-21.213-7.316-28.948 0.936s-7.316 21.213 0.936 28.948l176.255 165.2c4.238 4.172 4.16 11.012-0.187 15.115l-50.97 48.073c-26.76-15.897-58.299-22.639-90.379-18.596-65.53 8.256-117.214 62.318-122.354 127.929-2.122 27.055 3.455 53.423 15.788 76.638l-56.267 53.093c-4.236 3.996-11.072 3.91-15.217-0.187l-614.886-610.807c-4.248-4.247-4.202-10.981 0.073-15.102l49.991-48.36c21.138 12.054 45.174 18.531 70.076 18.531 77.86 0 141.075-62.792 141.075-140.311 0-23.453-5.814-46.109-16.735-66.244zM514.902 790.465c-8.224 7.765-8.597 20.727-0.832 28.951s20.727 8.597 28.951 0.832l40.716-38.442c8.224-7.765 8.597-20.727 0.832-28.951s-20.727-8.597-28.951-0.832l-40.716 38.442zM596.334 713.581c-8.224 7.765-8.597 20.727-0.832 28.951s20.727 8.597 28.951 0.832l40.716-38.442c8.224-7.765 8.597-20.727 0.832-28.951s-20.727-8.597-28.951-0.832l-40.716 38.442zM677.766 636.697c-8.224 7.765-8.597 20.727-0.832 28.951s20.727 8.597 28.951 0.832l40.716-38.442c8.224-7.765 8.597-20.727 0.832-28.951s-20.727-8.597-28.951-0.832l-40.716 38.442zM759.197 559.814c-8.224 7.765-8.597 20.727-0.832 28.951s20.727 8.597 28.951 0.832l40.716-38.442c8.224-7.765 8.597-20.727 0.832-28.951s-20.727-8.597-28.951-0.832l-40.716 38.442zM840.629 482.93c-8.224 7.765-8.597 20.727-0.832 28.951s20.727 8.597 28.951 0.832l0.74-0.698c8.224-7.765 8.597-20.727 0.832-28.951s-20.727-8.597-28.951-0.832l-0.74 0.698zM767.228 280.265c11.311 0 20.48-9.169 20.48-20.48s-9.169-20.48-20.48-20.48h-255.162c-11.311 0-20.48 9.169-20.48 20.48s9.169 20.48 20.48 20.48h255.162zM619.165 386.56c0 11.311 9.169 20.48 20.48 20.48s20.48-9.169 20.48-20.48v-253.547c0-11.311-9.169-20.48-20.48-20.48s-20.48 9.169-20.48 20.48v253.547zM852.041 268.427c0 116.126-94.446 210.293-210.981 210.293-116.531 0-210.981-94.169-210.981-210.293s94.449-210.286 210.981-210.286c116.536 0 210.981 94.162 210.981 210.286zM893.001 268.427c0-138.774-112.811-251.246-251.941-251.246-139.126 0-251.941 112.475-251.941 251.246s112.816 251.253 251.941 251.253c139.129 0 251.941-112.478 251.941-251.253z" />
<glyph unicode="&#xe91f;" glyph-name="icIndiCombo" d="M1024 711.757v-102.351c0-83.282-44.284-116.076-102.4-121.939v-346.668c0-11.311-9.169-20.48-20.48-20.48s-20.48 9.169-20.48 20.48v346.668c-58.116 5.863-102.4 38.657-102.4 121.939v145.793c0 11.311 9.169 20.48 20.48 20.48s20.48-9.169 20.48-20.48v-145.793c0-52.292 19.232-75.637 61.44-80.824v226.618c0 11.311 9.169 20.48 20.48 20.48s20.48-9.169 20.48-20.48v-226.618c42.208 5.187 61.44 28.532 61.44 80.824v145.793c0 11.311 9.169 20.48 20.48 20.48s20.48-9.169 20.48-20.48v-43.443zM122.88 471.417v-330.617c0-11.311-9.169-20.48-20.48-20.48s-20.48 9.169-20.48 20.48v330.617c-47.55 13.852-81.92 74.734-81.92 140.423 0 91.998 41.98 163.84 102.4 163.84s102.4-71.842 102.4-163.84c0-65.689-34.37-126.571-81.92-140.423zM102.4 509.44c30.589 0 61.44 47.469 61.44 102.4 0 72.355-29.523 122.88-61.44 122.88s-61.44-50.525-61.44-122.88c0-54.931 30.851-102.4 61.44-102.4zM491.52 222.72c-135.73 0-245.76 110.030-245.76 245.76s110.030 245.76 245.76 245.76c135.73 0 245.76-110.030 245.76-245.76s-110.030-245.76-245.76-245.76zM491.52 263.68c113.108 0 204.8 91.692 204.8 204.8s-91.692 204.8-204.8 204.8c-113.108 0-204.8-91.692-204.8-204.8s91.692-204.8 204.8-204.8z" />
<glyph unicode="&#xe920;" glyph-name="departments" d="M811.242 317.58h-63.107c-47.86 0-86.791-38.931-86.791-86.791v-63.107h-289.089v63.107c0 47.86-38.931 86.791-86.791 86.791h-63.107v289.089h63.107c47.86 0 86.791 38.931 86.791 86.791v63.107h289.089v-63.107c0-47.86 38.931-86.791 86.791-86.791h63.107v-289.089zM961.14 230.789v-179.749c0-18.33-14.904-33.256-33.256-33.256h-179.749c-18.352 0-33.256 14.926-33.256 33.256v179.749c0 18.33 14.904 33.256 33.256 33.256h179.749c18.352 0 33.256-14.926 33.256-33.256zM318.719 51.039c0-18.33-14.904-33.256-33.256-33.256h-179.749c-18.352 0-33.256 14.926-33.256 33.256v179.749c0 18.33 14.904 33.256 33.256 33.256h179.749c18.352 0 33.256-14.926 33.256-33.256v-179.749zM72.458 693.46v179.749c0 18.33 14.904 33.256 33.256 33.256h179.749c18.352 0 33.256-14.926 33.256-33.256v-179.749c0-18.33-14.904-33.256-33.256-33.256h-179.749c-18.352 0-33.256 14.926-33.256 33.256zM714.879 873.209c0 18.33 14.904 33.256 33.256 33.256h179.749c18.352 0 33.256-14.926 33.256-33.256v-179.749c0-18.33-14.904-33.256-33.256-33.256h-179.749c-18.352 0-33.256 14.926-33.256 33.256v179.749zM927.884 606.669c47.86 0 86.791 38.931 86.791 86.791v179.749c0 47.86-38.931 86.791-86.791 86.791h-179.749c-47.86 0-86.791-38.931-86.791-86.791v-63.107h-289.089v63.107c0 47.86-38.931 86.791-86.791 86.791h-179.749c-47.86 0-86.791-38.931-86.791-86.791v-179.749c0-47.86 38.931-86.791 86.791-86.791h63.107v-289.089h-63.107c-47.86 0-86.791-38.931-86.791-86.791v-179.749c0-47.86 38.931-86.791 86.791-86.791h179.749c47.86 0 86.791 38.931 86.791 86.791v63.107h289.089v-63.107c0-47.86 38.931-86.791 86.791-86.791h179.749c47.86 0 86.791 38.931 86.791 86.791v179.749c0 47.86-38.931 86.791-86.791 86.791h-63.107v289.089h63.107z" />
<glyph unicode="&#xe921;" glyph-name="experience" d="M890.38 742.902h-197.307c-2.498 72.784-52.449 131.765-112.39 131.765h-152.351c-59.941 0-109.893-58.98-112.39-131.765h-197.307c-66.185 0-118.634-53.961-118.634-119.216v-463.059c0-66.51 53.698-119.216 118.634-119.216h771.746c66.185 0 118.634 53.961 118.634 119.216v461.804c0 66.51-53.698 120.471-118.634 120.471zM428.332 816.941h152.351c28.722 0 53.698-33.882 56.195-74.039h-264.741c2.498 40.157 27.473 74.039 56.195 74.039zM952.82 159.373c0-35.137-27.473-62.745-62.439-62.745h-771.746c-34.966 0-62.439 27.608-62.439 62.745v463.059c0 35.137 27.473 62.745 62.439 62.745h771.746c34.966 0 62.439-27.608 62.439-62.745v-463.059z" />
<glyph unicode="&#xe922;" glyph-name="job-search" d="M987.543-48.941c-5.512 0-10.734 2.349-14.673 6.614l-286.871 286.003-6.361-5.421c-73.457-62.85-166.755-97.455-262.728-97.455-221.744 0-402.161 180.363-402.161 402.071s180.417 402.071 402.161 402.071c221.744 0 402.161-180.363 402.161-402.071 0-97.22-33.828-188.151-97.816-262.927l-5.457-6.361 286.672-285.768c8.204-8.837 8.385-22.010 0.181-29.726-4.373-4.68-9.595-7.029-15.107-7.029zM416.91 899.765c-196.843 0-356.966-160.105-356.966-356.894s160.123-356.894 356.966-356.894c196.843 0 356.966 160.105 356.966 356.894s-160.123 356.894-356.966 356.894zM534.316 384.751v32.401c0 62.217-50.688 112.833-112.977 112.833-62.307 0-112.995-50.616-112.995-112.833v-32.401h-40.605v32.401c0 58.223 32.22 110.213 83.269 136.325-29.274 21.992-46.911 56.633-46.911 93.642 0 64.566 52.585 117.115 117.242 117.115s117.242-52.549 117.242-117.115c0-37.063-17.691-71.758-47.038-93.732 51.646-26.799 83.396-78.444 83.396-136.234v-32.401h-40.623zM421.339 723.647c-42.267 0-76.637-34.334-76.637-76.529 0-42.213 34.37-76.547 76.637-76.547 42.249 0 76.619 34.334 76.619 76.547 0 42.195-34.37 76.529-76.619 76.529z" />
<glyph unicode="&#xe923;" glyph-name="life-indigo" d="M506.104 959.861c-11.892-1.311-20.815-11.519-20.557-23.518v-162.095c-0.118-8.351 4.256-16.119 11.446-20.329s16.083-4.21 23.273 0c7.19 4.21 11.564 11.978 11.446 20.329v162.095c0.143 6.669-2.587 13.076-7.491 17.58s-11.506 6.668-18.115 5.938zM194.497 844.078c-8.559-0.798-15.967-6.302-19.225-14.283s-1.825-17.116 3.717-23.708l103.869-127.361c8.067-9.991 22.68-11.53 32.639-3.437s11.493 22.753 3.426 32.745l-103.869 127.361c-4.911 6.244-12.673 9.523-20.557 8.684zM817.35 844.078c-5.987-0.795-11.425-3.913-15.148-8.684l-103.869-127.722c-8.067-9.991-6.533-24.652 3.426-32.745s24.572-6.554 32.639 3.437l103.869 127.722c6.279 7.338 7.352 17.818 2.691 26.283s-14.075 13.134-23.609 11.708zM418.825 635.308c-3.921 0.035-7.996-0.023-11.902-0.362-31.243-2.678-62.907-16.466-87.64-40.886-49.542-48.916-54.719-122.915-12.623-170.779l173.115-196.83c4.842-5.505 9.992-9.968 12.262-12.302 4.349-4.509 10.336-7.055 16.59-7.055s12.241 2.546 16.59 7.055c2.27 2.334 7.42 6.797 12.262 12.302l173.115 196.83c42.096 47.864 36.919 121.863-12.623 170.779-24.733 24.42-56.396 38.207-87.64 40.886s-63.795-6.133-84.754-30.755l-16.951-19.9-16.951 19.9c-18.34 21.542-45.405 30.887-72.853 31.116zM410.891 588.995c20.132 1.726 36.319-4.117 45.443-14.835l34.623-40.886c4.386-5.236 10.855-8.259 17.672-8.259s13.286 3.023 17.672 8.259l34.623 40.886c9.123 10.717 25.31 16.56 45.443 14.835s42.479-11.403 59.148-27.86c34.971-34.529 36.25-77.775 10.459-107.099l-167.345-190.317-167.345 190.317c-25.791 29.324-24.512 72.569 10.459 107.099 16.668 16.458 39.016 26.134 59.148 27.86zM21.742 554.261c-11.72-0.685-21.061-10.085-21.707-21.845s7.608-22.133 19.182-24.106l161.574-34.735c12.544-2.587 24.805 5.512 27.393 18.095s-5.476 24.889-18.016 27.495l-161.574 34.735c-2.253 0.463-4.563 0.585-6.852 0.362v0zM992.269 554.261c-1.21-0.026-2.416-0.147-3.607-0.362l-161.574-34.735c-12.504-2.64-20.527-14.926-17.945-27.48s14.797-20.651 27.322-18.109l161.574 34.735c12.524 1.734 21.328 13.252 19.747 25.836s-12.957 21.552-25.518 20.115v0zM221.185 299.901c-4.468 0.045-8.853-1.211-12.623-3.617l-138.492-80.686c-10.966-6.435-14.696-20.545-8.35-31.587s20.387-14.872 31.432-8.575l138.492 81.047c9.1 5.045 13.716 15.571 11.273 25.71s-11.34 17.389-21.732 17.708zM795.711 299.901c-10.329-0.469-19.088-7.771-21.437-17.873s2.283-20.539 11.339-25.545l138.492-81.047c11.045-6.297 25.086-2.467 31.432 8.575s2.616 25.151-8.35 31.587l-138.492 80.686c-3.873 2.474-8.393 3.734-12.984 3.617zM390.694 137.806c-9.243-1.102-16.922-7.664-19.475-16.643l-46.164-150.518c-3.286-8.133-1.708-17.431 4.077-24.014s14.782-9.321 23.237-7.070c8.455 2.251 14.916 9.103 16.686 17.697l46.164 150.155c2.52 7.513 1.035 15.797-3.937 21.958s-12.739 9.343-20.588 8.435zM621.153 137.806c-6.899-0.833-13.056-4.74-16.764-10.635s-4.571-13.153-2.351-19.758l46.164-150.155c1.77-8.594 8.231-15.446 16.686-17.697s17.452 0.487 23.237 7.070c5.785 6.583 7.363 15.881 4.077 24.014l-46.164 150.518c-3.107 10.918-13.645 17.965-24.885 16.643z" />
<glyph unicode="&#xe924;" glyph-name="ic-rounded-error" d="M512-64c-282.77 0-512 229.23-512 512s229.23 512 512 512c282.77 0 512-229.23 512-512s-229.23-512-512-512zM512 498.283l-176.157 176.157c-13.789 13.789-36.232 13.719-50.117-0.166-13.982-13.982-13.96-36.324-0.166-50.117l176.157-176.157-176.157-176.157c-13.789-13.789-13.719-36.232 0.166-50.117 13.982-13.982 36.324-13.96 50.117-0.166l176.157 176.157 176.157-176.157c13.789-13.789 36.232-13.719 50.117 0.166 13.982 13.982 13.96 36.324 0.166 50.117l-176.157 176.157 176.157 176.157c13.789 13.789 13.719 36.232-0.166 50.117-13.982 13.982-36.324 13.96-50.117 0.166l-176.157-176.157z" />
<glyph unicode="&#xe925;" glyph-name="play" d="M512-64c-282.77 0-512 229.23-512 512s229.23 512 512 512c282.77 0 512-229.23 512-512s-229.23-512-512-512zM512-39.024c268.976 0 487.024 218.048 487.024 487.024s-218.048 487.024-487.024 487.024c-268.976 0-487.024-218.048-487.024-487.024s218.048-487.024 487.024-487.024zM643.786 472.71c9.565-5.314 14.879-15.942 15.942-27.633 0-11.691-6.377-22.319-15.942-27.633l-221.061-151.979c-5.314-3.188-11.691-4.251-17.005-4.251s-10.628 1.063-15.942 4.251c-9.565 5.314-15.942 15.942-15.942 27.633v303.958c0 11.691 6.377 22.319 15.942 27.633s22.319 5.314 31.884 0l222.124-151.979z" />
<glyph unicode="&#xe926;" glyph-name="pointer" d="M512-64c-282.77 0-512 229.23-512 512s229.23 512 512 512c282.77 0 512-229.23 512-512s-229.23-512-512-512zM512-17.455c257.063 0 465.455 208.391 465.455 465.455s-208.391 465.455-465.455 465.455c-257.063 0-465.455-208.391-465.455-465.455s208.391-465.455 465.455-465.455zM370.8 422.498l94.056-65.812 213.54 283.535c14.28 18.961 41.39 22.876 60.551 8.746s23.118-40.957 8.838-59.917l-263.977-350.504-162.972 114.033c-19.512 13.653-24.145 40.372-10.348 59.68s40.799 23.892 60.311 10.24z" />
<glyph unicode="&#xe927;" glyph-name="testimonials" d="M6.635 448v-404.211h410.556v404.211h-234.603c0 127.556 105.045 230.977 234.603 230.977v173.233c-226.764 0-410.556-180.962-410.556-404.211zM1003.687 678.977v173.233c-226.753 0-410.556-180.962-410.556-404.211v-404.211h410.556v404.211h-234.603c0 127.556 105.045 230.977 234.603 230.977z" />
<glyph unicode="&#xe928;" glyph-name="connections" d="M73.143 153.885c0 120.276 98.532 217.885 219.962 217.885 57.23 0 109.399-21.707 148.534-57.239l194.185 147.446c-8.069 19.192-12.533 40.258-12.533 62.365 0 18.839 3.234 36.942 9.218 53.778-0.34 0.24-0.695 0.481-1.019 0.753l-215.046 163.29c-20.618-15.619-46.396-24.895-74.323-24.895-67.645 0-122.514 54.355-122.514 121.366 0 66.995 54.869 121.366 122.514 121.366 67.628 0 122.514-54.371 122.514-121.366 0-13.152-2.118-25.824-6.032-37.679l212.928-161.672c29.626 29.22 70.458 47.29 115.544 47.29 90.398 0 163.783-72.682 163.783-162.232 0-89.567-73.385-162.232-163.783-162.232-41.835 0-80.032 15.555-108.962 41.139l-191.63-145.508c16.948-30.87 26.586-66.258 26.586-103.856 0-120.292-98.548-217.885-219.962-217.885-121.43 0-219.962 97.592-219.962 217.885z" />
<glyph unicode="&#xe929;" glyph-name="destinations1" d="M917.275 555.876h-217.751l-182.198 386.601c-5.39 10.952-15.092 17.523-26.951 17.523h-88.398c-19.405 0-33.408-18.618-29.107-37.236l88.398-376.744-304.004-25.189-66.838 118.28c-4.312 7.666-11.858 12.047-20.483 12.047h-46.344c-16.17 0-26.951-15.333-22.649-30.665l51.745-173.040-51.745-173.040c-4.301-15.333 6.479-30.665 22.649-30.665h46.344c8.624 0 16.17 4.381 20.483 12.058l66.838 118.269 304.004-25.189-88.398-375.649c-4.301-18.607 9.702-37.236 29.107-37.236h88.398c11.858 0 21.561 6.571 26.951 17.523l182.198 385.506h217.751c59.292 0 106.725 49.283 106.725 108.424 0 60.235-48.511 108.424-106.725 108.424z" />
<glyph unicode="&#xe92a;" glyph-name="download" d="M110.527 192v704h802.946v-704h-802.946zM110.527 0v128h802.946v-128h-802.946zM48.762-64h926.476v1024h-926.476v-1024zM481.117 320h61.765v20.8l154.258 160.016-41.074 43.184-113.185-116.8v404.8h-61.765v-404.8l-113.185 116.8-41.074-43.184 154.258-160.016v-20.8z" />
<glyph unicode="&#xe92b;" glyph-name="edit2" d="M278.169 287.652l82.538-85.34-121.307-42.854 38.768 128.193zM731.236 776.29l93.602-99.741-424.301-445.799-96.194 102.475 426.893 443.066zM832.492 892.175c5.896 6.074 13.731 9.431 22.158 9.431 8.396 0 21.067-9.431 26.932-15.505l48.347-52.588c12.246-12.628 12.246-33.391 0.061-46.194l-69.065-72.089-97.467 104.872 69.035 72.073zM237.431 345.995l-0.364-1.918-58.835-208.114 43.209-40.28 188.765 69.547 2.379-0.655h9.275l456.765 476.665 93.693 99.885c36.601 38.202 30.827 112.369-5.774 150.747l-40.678 40.424c-35.358 36.939-97.467 36.939-132.81 0l-87.797-107.558-467.828-467.234v-11.509zM936.294-0.063h-848.723v895.115h546.017v63.937h-546.017c-33.479 0-60.623-28.612-60.623-63.937v-895.115c0-35.309 27.144-63.937 60.623-63.937h848.723c33.479 0 60.623 28.628 60.623 63.937v639.208h-60.623v-639.208z" />
<glyph unicode="&#xe92c;" glyph-name="flyers" d="M760.242 727.273c0-129.855-104.559-232.727-232.727-232.727s-232.727 104.559-232.727 232.727c0 128.169 104.559 232.727 232.727 232.727s232.727-102.872 232.727-232.727zM946.424 35.621c0-132.828-868.848-132.828-868.848 0 0 197.622 193.639 396.864 434.424 396.864s434.424-199.242 434.424-396.864z" />
<glyph unicode="&#xe92d;" glyph-name="hassle-free-booking" d="M469.22 114.56l7.994-8.107 242.552 311.893-30.249 29.867-225.915-292.693-130.2 121.621-28.736-28.395 156.775-141.867 7.778 7.68zM317.977 746.453h86.641v85.547h-86.641v-85.547zM965.729 661.333h-907.458v223.147c0 18.133 14.908 32.853 33.273 32.853h840.911c18.365 0 33.273-14.72 33.273-32.853v-223.147zM965.729 11.733c0-18.112-14.908-32.853-33.273-32.853h-840.911c-18.365 0-33.273 14.741-33.273 32.853v606.933h907.458v-606.933zM975.884 960h-927.768c-18.149 0-33.057-14.507-33.057-32.619v-958.528c0-18.155 14.908-32.853 33.057-32.853h927.768c18.149 0 33.057 14.699 33.057 32.853v958.528c0 18.112-14.908 32.619-33.057 32.619zM491.042 746.453h86.641v85.547h-86.641v-85.547zM144.912 746.453h86.641v85.547h-86.641v-85.547z" />
<glyph unicode="&#xe92e;" glyph-name="help-centre" d="M960-22.016h-896c-12.698 0-23.040 10.65-23.040 23.552 0 11.469 7.946 19.456 15.79 22.118l3.809 1.229 3.502 2.048c75.633 44.237 205.537 113.869 311.603 156.877 41.124-27.238 87.286-43.008 136.335-43.008 49.029 0 95.212 15.77 136.335 43.008 106.107-43.008 235.991-112.64 311.624-156.877l3.482-2.048 3.809-1.229c7.864-2.662 15.79-10.65 15.79-22.118 0-12.902-10.322-23.552-23.040-23.552zM245.76 550.4c0 203.776 119.194 368.64 266.24 368.64 147.026 0 266.24-164.864 266.24-368.64 0-203.571-119.214-368.64-266.24-368.64-147.046 0-266.24 165.069-266.24 368.64zM980.234 63.386c-18.801 11.059-162.816 94.413-293.908 149.914 80.22 73.933 132.874 197.222 132.874 337.101 0 226.304-137.544 409.6-307.2 409.6-169.677 0-307.2-183.296-307.2-409.6 0-139.878 52.634-263.168 132.854-337.101-131.052-55.501-275.026-138.854-293.868-149.914-25.395-8.602-43.786-32.973-43.786-61.85 0-36.25 28.652-65.536 64-65.536h896c35.369 0 64 29.286 64 65.536 0 28.877-18.391 53.248-43.766 61.85z" />
<glyph unicode="&#xe92f;" glyph-name="list" d="M808.776 345.6h-491.435c-19.482 0-35.102-11.491-35.102-25.664 0-14.045 15.621-25.536 35.102-25.536h491.435c19.306 0 35.102 11.491 35.102 25.536 0 14.173-15.796 25.664-35.102 25.664zM808.776 550.4h-491.435c-19.482 0-35.102-11.402-35.102-25.606 0-14.076 15.621-25.594 35.102-25.594h491.435c19.306 0 35.102 11.517 35.102 25.594 0 14.204-15.796 25.606-35.102 25.606zM945.994 175.692c0-19.2-16.083-34.892-35.741-34.892h-643.333c-19.836 0-35.741 15.692-35.741 34.892v698.372c0 19.2 15.905 34.735 35.741 34.735h643.333c19.657 0 35.741-15.535 35.741-34.735v-698.372zM928.975 960h-680.776c-37.613 0-68.078-30.112-68.078-67.121v-736.476c0-36.992 30.465-66.803 68.078-66.803h680.776c37.613 0 68.078 29.811 68.078 66.803v736.476c0 37.009-30.465 67.121-68.078 67.121zM317.979 704h285.926c19.657 0 35.741 11.491 35.741 25.536 0 14.173-16.083 25.664-35.741 25.664h-285.926c-19.836 0-35.741-11.491-35.741-25.664 0-14.045 15.905-25.536 35.741-25.536zM97.643 806.4c-39.060 0-70.696-29.962-70.696-66.788v-736.506c0-37.16 31.636-67.106 70.696-67.106h777.655c39.059 0 70.696 29.946 70.696 67.106h-848.351v803.294z" />
<glyph unicode="&#xe930;" glyph-name="pnr" d="M512 960c282.768 0 512-200.48 512-448 0-247.36-229.232-448-512-448-19.664 0-39.008 1.12-58.096 3.040l-261.904-131.040v226.416c-117.008 82.24-192 208.16-192 349.584 0 247.52 229.232 448 512 448zM512 128c247.424 0 448 172 448 384 0 212.16-200.576 384-448 384s-448-171.84-448-384c0-130.4 75.984-245.584 192-315.040v-164.96l198.512 99.36c18.832-2.080 38-3.36 57.488-3.36zM364.761 563.727c0-24.288-7.954-42.901-23.864-55.841s-38.553-19.409-67.932-19.409h-24.182v-87.023h-38.023v232.591h66.977c29.061 0 50.829-5.939 65.307-17.818s21.716-29.379 21.716-52.5zM604.989 401.455h-46.614l-114.386 185.341h-1.273l0.795-10.341c1.485-19.727 2.227-37.757 2.227-54.091v-120.909h-34.523v232.591h46.136l114.068-184.386h0.955c-0.212 2.439-0.636 11.322-1.273 26.648s-0.955 27.284-0.955 35.875v121.864h34.841v-232.591zM704.42 494.364v-92.909h-38.023v232.591h65.705c30.015 0 52.235-5.621 66.659-16.864s21.636-28.212 21.636-50.909c0-28.955-15.060-49.583-45.182-61.886l65.705-102.932h-43.273l-55.682 92.909h-37.545zM248.784 520.455h20.205c19.515 0 33.833 3.394 42.955 10.182s13.682 17.394 13.682 31.818c0 13.364-4.083 23.333-12.25 29.909s-20.894 9.864-38.182 9.864h-26.409v-81.773zM704.42 525.864h26.409c17.712 0 30.545 3.288 38.5 9.864s11.932 16.333 11.932 29.273c0 13.152-4.295 22.591-12.886 28.318s-21.53 8.591-38.818 8.591h-25.136v-76.045z" />
<glyph unicode="&#xe931;" glyph-name="refresh" d="M960 695.2v232.64c0 17.76 14.416 32 32 32 17.6 0 32.016-14.24 32.016-32v-315.2c0-1.44 0-3.040 0-4.64 0-4.32 0-8.32-1.6-12.16-1.616-0.64-1.616-1.44-1.616-2.080 0-1.12-1.584-2.4-1.584-3.36-3.216-4.64-8.016-8.48-12.8-11.040 1.584-1.12 1.584-2.24 1.584-3.36h-336c-17.584 0-31.984 14.4-31.984 32 0 17.76 14.4 32 31.984 32h244.816c-72 151.36-225.616 256-404.816 256-248 0-447.984-200.64-447.984-448s199.984-448 447.984-448c225.6 0 412.8 166.88 443.2 384h64.016c-30.4-252.48-246.4-448-507.216-448-283.2 0-512 229.28-512 512s228.8 512 512 512c193.6 0 360-107.040 448-264.8z" />
<glyph unicode="&#xe932;" glyph-name="routes" d="M512.096 960c-302.162 0-495.21-327.17-356.719-590.606 67.147-140.216 264.392-327.17 356.719-433.394 88.131 97.726 297.965 301.676 360.916 437.643 130.097 267.685-62.95 586.357-360.916 586.357zM512.096 807.037c138.491 0 251.802-114.722 251.802-254.938s-113.311-254.938-251.802-254.938c-138.491 0-251.802 114.722-251.802 254.938s113.311 254.938 251.802 254.938z" />
<glyph unicode="&#xe933;" glyph-name="seat-blocking" d="M904.497 349.193c-9.485 8.149-20.947 12.244-33.199 12.244 0 0-30.63 10.166-79.046 22.389-12.252 18.335-19.761 38.728-19.761 61.118 0 57.043 44.266 101.863 98.807 101.863s98.807-44.82 98.807-101.863c0-44.82-27.468-81.49-65.608-95.751zM898.246 83.986c0-12.126-9.148-22.232-20.329-22.232h-731.834c-11.181 0-20.329 10.105-20.329 22.232v214.232c0 12.126 9.148 24.253 20.329 24.253h6.912l6.505 2.021c1.626 0 179.706 60.632 352.5 60.632 174.827 0 350.67-60.632 352.5-60.632l6.505-2.021h6.912c11.181 0 20.329-12.126 20.329-24.253v-214.232zM35.93 444.944c0 57.043 44.266 101.863 98.807 101.863s98.807-44.82 98.807-101.863c0-22.389-7.509-42.782-19.959-61.118-48.218-12.224-78.848-22.389-78.848-22.389-12.252 0-23.714-4.095-33.199-12.244-38.14 14.261-65.608 50.931-65.608 95.751zM161.684 636.914c0 157.936 129.205 287.156 288.495 287.156h123.641c159.291 0 288.495-129.22 288.495-287.156v-43.073c-69.857-10.235-123.641-69.738-123.641-141.527 0-16.409 3.091-32.818 8.449-49.227-66.56 16.409-150.43 28.716-235.124 28.716-83.87 0-168.152-14.358-235.33-28.716 5.564 16.409 8.655 32.818 8.655 49.227 0 71.789-53.784 131.292-123.641 141.527v43.073zM1024 448c0 71.68-53.453 131.092-122.88 141.312v57.344c0 172.032-145.203 313.344-324.198 313.344h-129.843c-178.995 0-324.198-141.312-324.198-313.344v-57.344c-69.427-10.22-122.88-69.632-122.88-141.312 0-57.344 34.816-108.544 84.787-131.092-1.638-6.124-2.867-12.268-2.867-18.412v-217.088c0-34.816 27.443-63.488 61.44-63.488h20.48v-81.92h40.96v81.92h614.4v-81.92h40.96v81.92h20.48c33.997 0 61.44 28.672 61.44 63.488v217.088c0 6.144-1.229 12.288-2.867 18.412 49.971 22.548 84.787 73.748 84.787 131.092z" />
<glyph unicode="&#xe934;" glyph-name="icHamburger" horiz-adv-x="1103" d="M1047.631 49.749h-992.492c-30.326 0-55.138-25.6-55.138-56.889 0-31.26 24.812-56.86 55.138-56.86h992.492c30.326 0 55.138 25.6 55.138 56.86 0 31.289-24.812 56.889-55.138 56.889zM1047.631 504.86h-992.492c-30.326 0-55.138-25.6-55.138-56.86 0-31.289 24.812-56.917 55.138-56.917h992.492c30.326 0 55.138 25.628 55.138 56.917 0 31.26-24.812 56.86-55.138 56.86zM55.138 846.194h992.492c30.326 0 55.138 25.6 55.138 56.889s-24.812 56.917-55.138 56.917h-992.492c-30.326 0-55.138-25.628-55.138-56.917s24.812-56.889 55.138-56.889z" />
<glyph unicode="&#xe935;" glyph-name="icRecent" horiz-adv-x="939" d="M446.181-64c-199.027 0-377.975 125.871-445.349 313.221-3.027 10.073 2.417 21.434 12.851 25.68 2.62 1.084 5.375 1.604 8.176 1.604 8.854 0 16.759-5.285 20.101-13.506l1.965-4.879 0.632-0.339c21.366-56.804 55.2-109.361 98.113-152.297 81.061-81.151 188.886-125.849 303.577-125.849h0.045c114.556 0.023 222.291 44.607 303.329 125.578 81.083 81.016 125.781 188.773 125.849 303.419 0.045 114.623-44.562 222.426-125.6 303.532-81.061 81.151-188.886 125.849-303.6 125.849-114.556 0-222.291-44.607-303.351-125.578-1.445-1.468-29.972-31.778-29.972-31.778h237.175c11.971 0 21.705-9.735 21.705-21.705s-9.735-21.705-21.705-21.705l-278.575 0.723c-12.016 0-21.75 9.735-21.75 21.705l-0.723 278.665c0 11.925 9.735 21.66 21.705 21.66s21.705-9.735 21.705-21.705v-212.692l24.799 23.986c48.515 46.866 105.296 82.213 168.762 105.024 51.767 18.611 105.612 28.052 160.066 28.052 199.027 0 377.953-125.894 445.349-313.267 88.243-245.531-39.683-517.127-285.215-605.393-51.744-18.588-105.612-28.007-160.066-28.007zM668.122 308.743h-198.417c-11.971 0-21.705 9.735-21.705 21.705v266.514c0 11.971 9.735 21.705 21.705 21.705s21.705-9.735 21.705-21.705v-244.831h176.712c11.971 0 21.705-9.735 21.705-21.682 0-11.971-9.735-21.705-21.705-21.705z" />
<glyph unicode="&#xe936;" glyph-name="icPopular" d="M512.011 960l-160.263-352.582-351.749-31.967 265.895-267.517-73.328-371.393 318.272 194.865 318.137-194.955-71.143 371.551 266.166 267.45-351.726 31.967-160.263 352.582zM305.499 292.66l5.587 28.723-20.478 20.523-198.92 200.385 287.995 25.456 132.328 291.104 119.24-262.494 13.089-28.61 31.719-2.726 256.141-22.731-219.443-220.907 57.626-300.949-230.887 141.948-28.655 16.513-28.385-16.378-230.684-140.371 53.729 270.514z" />
<glyph unicode="&#xe937;" glyph-name="minus" d="M0 359.619v195.048h1024v-195.048z" />
<glyph unicode="&#xe938;" glyph-name="plus" horiz-adv-x="1003" d="M408.633 358.344h-408.633v182.756h408.633v418.9h184.809v-418.9h409.66v-182.756h-409.66v-416.847h-184.809z" />
<glyph unicode="&#xe939;" glyph-name="cancellation-policy" d="M752.487 285.863l-67.541-67.351c-19.336-19.282-48.258 9.722-28.922 29.004l67.459 67.27-67.459 67.27c-19.336 19.282 9.587 48.285 28.922 29.004l67.541-67.351 67.541 67.351c19.336 19.282 48.258-9.722 28.922-29.004l-67.459-67.27 67.459-67.27c19.336-19.282-9.587-48.285-28.922-29.004l-67.541 67.351zM0.202 602.722c-0.797 5.635 0.722 11.673 5.228 16.584l306.476 334.019c4.579 4.991 10.516 6.996 16.223 6.634h200.591c100.841 0 182.615-81.545 182.615-182.16v-144.535c0-11.311-9.169-20.48-20.48-20.48s-20.48 9.169-20.48 20.48v144.535c0 77.968-63.41 141.2-141.655 141.2h-181.244v-164.421c0-93.645-75.534-169.597-168.775-169.597h-137.539v-608.061h629.214v28.452c0 11.311 9.169 20.48 20.48 20.48s20.48-9.169 20.48-20.48v-48.932c0-11.311-9.169-20.48-20.48-20.48h-670.174c-11.311 0-20.48 9.169-20.48 20.48v646.283zM67.253 625.94h111.448c70.569 0 127.815 57.563 127.815 128.637v132.255l-239.264-260.892zM752.49 585.628c149.958 0 271.55-121.252 271.55-270.846s-121.593-270.846-271.55-270.846c-149.958 0-271.55 121.252-271.55 270.846s121.593 270.846 271.55 270.846zM752.49 544.668c-127.362 0-230.59-102.939-230.59-229.886s103.229-229.886 230.59-229.886c127.362 0 230.59 102.939 230.59 229.886s-103.229 229.886-230.59 229.886zM125.455 157.816h316.463c27.307 0 27.307-40.96 0-40.96h-316.463c-27.307 0-27.307 40.96 0 40.96zM125.455 303.946h264.579c27.307 0 27.307-40.96 0-40.96h-264.579c-27.307 0-27.307 40.96 0 40.96zM125.455 450.083h290.525c27.307 0 27.307-40.96 0-40.96h-290.525c-27.307 0-27.307 40.96 0 40.96z" />
<glyph unicode="&#xe93a;" glyph-name="arrow-right" horiz-adv-x="1489" d="M1230.294 530.084l-279.715 314.832c-25.367 28.551-22.785 72.261 5.766 97.627s72.261 22.785 97.627-5.766l431.775-485.983-431.738-486.736c-25.344-28.572-69.051-31.189-97.623-5.846s-31.189 69.051-5.846 97.623l297.983 335.942h-1179.371c-38.192 0-69.153 30.961-69.153 69.153s30.961 69.153 69.153 69.153h1161.14z" />
<glyph unicode="&#xe93b;" glyph-name="checkin-policy" horiz-adv-x="901" d="M20.48 585.021c-17.824 0-27.141 21.192-15.090 34.326l306.476 334.019c12.624 13.759 35.57 4.827 35.57-13.846v-184.901c0-93.645-75.534-169.597-168.775-169.597h-158.181zM178.661 625.981c70.569 0 127.815 57.563 127.815 128.637v132.288l-239.41-260.926h111.595zM670.336 5.412c0 11.311 9.169 20.48 20.48 20.48s20.48-9.169 20.48-20.48v-48.932c0-11.311-9.169-20.48-20.48-20.48h-670.174c-11.311 0-20.48 9.169-20.48 20.48v649.021c0 5.126 1.922 10.065 5.386 13.842l306.328 334.019c3.879 4.23 9.355 6.638 15.094 6.638h201.711c100.841 0 182.615-81.545 182.615-182.16v-144.535c0-11.311-9.169-20.48-20.48-20.48s-20.48 9.169-20.48 20.48v144.535c0 77.968-63.41 141.2-141.655 141.2h-192.704l-294.854-321.508v-620.572h629.214v28.452zM871.731 472.596c8.868-2.028 15.073-9.871 15.073-19.128v-252.641c0-9.503-6.738-17.654-15.954-19.313-27.955-4.997-42.762-20.767-47.985-51.098-1.659-9.441-9.646-16.261-19.026-16.261h-409.436c-9.728 0-17.981 7.393-19.19 17.203-3.4 27.873-16.773 43.438-43.336 50.504-8.499 2.232-14.438 10.056-14.438 18.964v252.641c0 8.745 5.53 16.282 13.763 18.801 30.659 9.318 43.766 23.757 43.868 48.353 0.041 10.752 8.704 19.538 19.333 19.538h409.436c9.4 0 17.388-6.84 19.005-16.241 5.038-28.815 20.111-44.646 48.886-51.323zM410.214 153.416h378.429c9.462 31.396 29.901 52.941 59.515 62.751v222.577c-30.003 10.895-49.971 31.764-59.453 62.157h-376.996c-5.857-28.037-24.535-48.64-55.644-61.358v-224.522c27.689-11.325 46.244-32.461 54.149-61.604zM781.812 336.425c1.7-2.806 2.601-5.98 2.601-9.257s-0.901-6.472-2.601-9.277c-11.96-19.743-30.966-33.116-56.443-39.752-15.053-3.912-31.355-5.366-48.538-4.342l-26.296-75.694c-2.54-7.332-9.544-12.268-17.408-12.268h-39.506c-9.912 0-18.166 7.946-18.391 17.695l-1.638 74.732-23.982 2.335c-14.479 1.413-25.969 2.519-33.219 3.195-1.372-2.007-2.847-4.28-4.465-6.799l-1.495-2.417c-2.437-3.891-4.997-8.131-7.516-12.349l-3.256-5.571c-4.035-6.963-12.042-10.363-19.845-8.806l-24.924 5.222c-9.81 2.089-16.056 11.305-14.254 20.992l10.076 53.084-10.056 53.084c-1.823 9.708 4.424 18.924 14.213 21.012l24.945 5.222c7.885 1.536 15.831-1.884 19.804-8.765l3.297-5.612c2.519-4.219 5.079-8.458 7.537-12.37l1.167-1.905c1.761-2.785 3.297-5.12 4.608-7.066 7.168 0.41 18.432 1.495 31.969 2.826l25.395 2.478 1.638 74.732c0.225 9.748 8.479 17.695 18.391 17.695h39.506c7.864 0 14.868-4.936 17.408-12.268l26.296-75.694c17.265 1.085 33.567-0.41 48.558-4.342 25.457-6.636 44.462-20.009 56.422-39.752zM715.948 313.078c11.325 2.99 20.173 7.598 26.89 14.070-6.717 6.492-15.565 11.1-26.911 14.090-12.82 3.338-27.853 4.26-43.377 2.642-2.437-0.266-4.157-0.492-4.977-0.635-9.052-1.638-17.879 3.523-20.808 11.94l-26.788 77.107h-8.356l-1.618-72.991c-0.225-9.114-7.332-16.691-16.527-17.633l-40.223-3.973c-35.389-3.441-42.639-4.055-44.708-4.055-7.885 0-12.001 3.645-15.258 7.045-1.331 1.393-2.744 3.133-4.321 5.284-1.761 2.376-3.809 5.345-6.103 8.888l4.895-26.849-0.287-4.178-4.608-24.371c2.273 3.523 4.342 6.513 6.103 8.909 1.577 2.13 2.99 3.871 4.321 5.243 3.256 3.42 7.373 7.066 15.258 7.066 2.068 0 9.318-0.614 43.295-3.912l41.595-4.116c9.236-0.942 16.343-8.52 16.548-17.592l1.638-73.032h8.356l26.788 77.128c2.929 8.417 11.715 13.578 20.726 11.94 0.758-0.123 2.54-0.389 5.018-0.635 15.565-1.679 30.577-0.717 43.438 2.621z" />
<glyph unicode="&#xe93c;" glyph-name="fare-rules" horiz-adv-x="922" d="M0.162 602.763c-0.797 5.635 0.722 11.673 5.228 16.584l306.476 334.019c4.579 4.991 10.516 6.996 16.223 6.634h200.591c100.841 0 182.615-81.545 182.615-182.16v-144.535c0-11.311-9.169-20.48-20.48-20.48s-20.48 9.169-20.48 20.48v144.535c0 77.968-63.41 141.2-141.655 141.2h-181.244v-164.421c0-93.645-75.534-169.597-168.775-169.597h-137.539v-608.061h629.214v28.452c0 11.311 9.169 20.48 20.48 20.48s20.48-9.169 20.48-20.48v-48.932c0-11.311-9.169-20.48-20.48-20.48h-670.174c-11.311 0-20.48 9.169-20.48 20.48v646.283zM844.567 84.519h-585.491c-37.3 0-67.52 30.287-67.52 67.622v302.415c0 37.336 30.22 67.622 67.52 67.622h585.491c37.3 0 67.52-30.287 67.52-67.622v-302.415c0-37.336-30.22-67.622-67.52-67.622zM844.567 125.479c14.658 0 26.56 11.928 26.56 26.662v302.415c0 14.734-11.902 26.662-26.56 26.662h-585.491c-14.658 0-26.56-11.928-26.56-26.662v-302.415c0-14.734 11.902-26.662 26.56-26.662h585.491zM759.298 228.593c14.144 0 25.6-11.456 25.6-25.6 0-14.131-11.456-25.6-25.6-25.6-14.131 0-25.6 11.469-25.6 25.6 0 14.144 11.469 25.6 25.6 25.6zM759.298 325.12c14.144 0 25.6-11.456 25.6-25.6 0-14.131-11.456-25.6-25.6-25.6-14.131 0-25.6 11.469-25.6 25.6 0 14.144 11.469 25.6 25.6 25.6zM759.298 427.52c14.144 0 25.6-11.469 25.6-25.6 0-14.144-11.456-25.6-25.6-25.6-14.131 0-25.6 11.456-25.6 25.6 0 14.131 11.469 25.6 25.6 25.6zM628.206 315.945c1.7-2.806 2.601-5.98 2.601-9.257s-0.901-6.472-2.601-9.277c-11.96-19.743-30.966-33.116-56.443-39.752-15.053-3.912-31.355-5.366-48.538-4.342l-26.296-75.694c-2.54-7.332-9.544-12.268-17.408-12.268h-39.506c-9.912 0-18.166 7.946-18.391 17.695l-1.638 74.732-23.982 2.335c-14.479 1.413-25.969 2.519-33.219 3.195-1.372-2.007-2.847-4.28-4.465-6.799l-1.495-2.417c-2.437-3.891-4.997-8.131-7.516-12.349l-3.256-5.571c-4.035-6.963-12.042-10.363-19.845-8.806l-24.924 5.222c-9.81 2.089-16.056 11.305-14.254 20.992l10.076 53.084-10.056 53.084c-1.823 9.708 4.424 18.924 14.213 21.012l24.945 5.222c7.885 1.536 15.831-1.884 19.804-8.765l3.297-5.612c2.519-4.219 5.079-8.458 7.537-12.37l1.167-1.905c1.761-2.785 3.297-5.12 4.608-7.066 7.168 0.41 18.432 1.495 31.969 2.826l25.395 2.478 1.638 74.732c0.225 9.748 8.479 17.695 18.391 17.695h39.506c7.864 0 14.868-4.936 17.408-12.268l26.296-75.694c17.265 1.085 33.567-0.41 48.558-4.342 25.457-6.636 44.462-20.009 56.422-39.752zM562.342 292.598c11.325 2.99 20.173 7.598 26.89 14.070-6.717 6.492-15.565 11.1-26.911 14.090-12.82 3.338-27.853 4.26-43.377 2.642-2.437-0.266-4.157-0.492-4.977-0.635-9.052-1.638-17.879 3.523-20.808 11.94l-26.788 77.107h-8.356l-1.618-72.991c-0.225-9.114-7.332-16.691-16.527-17.633l-40.223-3.973c-35.389-3.441-42.639-4.055-44.708-4.055-7.885 0-12.001 3.645-15.258 7.045-1.331 1.393-2.744 3.133-4.321 5.284-1.761 2.376-3.809 5.345-6.103 8.888l4.895-26.849-0.287-4.178-4.608-24.371c2.273 3.523 4.342 6.513 6.103 8.909 1.577 2.13 2.99 3.871 4.321 5.243 3.256 3.42 7.373 7.066 15.258 7.066 2.068 0 9.318-0.614 43.295-3.912l41.595-4.116c9.236-0.942 16.343-8.52 16.548-17.592l1.638-73.032h8.356l26.788 77.128c2.929 8.417 11.715 13.578 20.726 11.94 0.758-0.123 2.54-0.389 5.018-0.635 15.565-1.679 30.577-0.717 43.438 2.621zM178.661 625.981c70.569 0 127.815 57.563 127.815 128.637v132.288l-239.41-260.926h111.595z" />
<glyph unicode="&#xe93d;" glyph-name="flight-status" d="M847.737 285.2c10.62 3.893 22.385-1.561 26.277-12.181s-1.561-22.385-12.181-26.277l-107.942-39.565c-13.365-4.899-27.528 4.994-27.528 19.229v152.95c0 11.311 9.169 20.48 20.48 20.48s20.48-9.169 20.48-20.48v-123.631l80.414 29.475zM983.040 269.166c0 116.126-94.446 210.293-210.981 210.293-116.531 0-210.981-94.169-210.981-210.293s94.449-210.286 210.981-210.286c116.536 0 210.981 94.162 210.981 210.286zM1024 269.166c0-138.774-112.811-251.246-251.941-251.246-139.126 0-251.941 112.475-251.941 251.246s112.816 251.253 251.941 251.253c139.129 0 251.941-112.478 251.941-251.253zM702.747 545.015l22.659-45.123c5.076-10.108 0.996-22.417-9.111-27.493s-22.417-0.996-27.493 9.111l-30.363 60.465c-4.604 9.169-1.713 20.331 6.764 26.111 0.948 0.646 2.937 2.065 5.817 4.221 4.922 3.686 10.44 8.046 16.401 13.043 17.095 14.33 34.207 30.814 50.136 49.148 54.632 62.878 81.524 130.245 67.768 199.129-69.164 13.75-136.79-13.077-199.894-67.577-18.389-15.882-34.923-32.943-49.296-49.986-5.012-5.943-9.384-11.444-13.081-16.351-2.163-2.871-3.585-4.853-4.233-5.797-5.781-8.428-16.891-11.303-26.035-6.738l-259.175 129.382-61.842-61.652 189.038-196.687c7.167-7.457 7.649-19.089 1.123-27.113-1.271-1.563-1.271-1.563-6.986-8.587-5.557-6.828-11.752-14.437-18.426-22.631-19.070-23.411-38.165-46.823-56.022-68.676-51.179-62.626-79.526-97.006-83.688-101.156-12.143-12.106-26.251-9.583-88.853 5.974-4.115 1.023-8.339 2.091-12.657 3.2-13.38 3.438-27.083 7.116-40.376 10.793-0.962 0.266-1.897 0.525-2.803 0.777l-23.706-36.907 135.996-93.955 2.819-2.347 2.406-2.864 94.288-135.661 37.085 23.68c-0.243 0.871-0.493 1.768-0.75 2.69-3.688 13.252-7.377 26.914-10.825 40.254-1.114 4.309-2.186 8.523-3.212 12.63-15.625 62.506-18.154 76.566-5.96 88.724 4.159 4.143 38.652 32.411 100.727 82.835 22.645 18.394 46.127 37.431 69.609 56.444 8.218 6.654 15.85 12.83 22.699 18.37 7.045 5.698 7.045 5.698 8.612 6.965 8.008 6.473 19.577 5.994 27.023-1.119l42.448-40.555c8.178-7.814 8.474-20.777 0.66-28.956s-20.777-8.474-28.956-0.66l-29.424 28.112c-5.383-4.356-11.172-9.041-17.287-13.992-23.466-19-46.932-38.024-68.832-55.813-46.175-37.508-80.294-65.406-93.037-76.072 0.32-2.738 0.846-6.175 1.571-10.203 2.013-11.191 5.413-26.258 9.885-44.148 0.999-3.998 2.045-8.108 3.132-12.314 3.378-13.072 7.003-26.496 10.628-39.52 2.174-7.811 3.861-13.741 4.818-17.045 2.525-8.724-0.996-18.068-8.651-22.956l-66.518-42.473c-9.271-5.919-21.561-3.459-27.839 5.573l-103.428 148.811-149.262 103.12c-9.085 6.277-11.559 18.627-5.591 27.918l42.601 66.324c4.89 7.614 14.198 11.116 22.894 8.613 3.316-0.954 9.265-2.637 17.101-4.805 13.066-3.615 26.533-7.23 39.646-10.599 4.216-1.083 8.336-2.125 12.343-3.121 17.947-4.46 33.063-7.852 44.292-9.86 4.082-0.73 7.56-1.259 10.324-1.578 10.681 12.682 38.682 46.721 75.736 92.061 18.436 22.561 37.518 45.957 56.575 69.353 4.937 6.061 9.612 11.802 13.959 17.143l-190.417 198.122c-7.737 8.050-7.6 20.813 0.307 28.695l86.513 86.247c6.231 6.212 15.734 7.75 23.607 3.82l257.071-128.332c2.647 3.336 5.658 7.025 9.023 11.016 15.689 18.604 33.702 37.191 53.836 54.58 75.899 65.551 160.264 96.948 248.91 73.446 3.089-0.819 5.943-2.349 8.335-4.469 3.066-2.717 5.224-6.212 6.26-10.099 23.586-88.446-7.922-172.602-73.687-248.294-17.441-20.074-36.084-38.033-54.743-53.674-3.978-3.334-7.657-6.32-10.986-8.946zM334.214 225.125c0.007 0.27-0.006 0.549-0.025 0.853 0.010-0.164 0.021-0.332 0.034-0.505l-0.009-0.348z" />
<glyph unicode="&#xe93e;" glyph-name="google" d="M325.236 495.349c103.57 0.313 207.16 0.459 310.874-0.313 6.223-88.068-5.275-181.791-58.688-254.604-80.902-115.26-243.325-148.922-370.036-99.546-127.185 49.063-217.237 185.109-206.521 323.806 2.782 169.666 156.838 318.275 324.372 312.62 80.284 3.777 155.746-31.596 217.237-81.306-26.232-30.198-53.413-59.289-82.448-86.482-73.917 51.735-179.032 66.51-252.948 6.762-105.754-74.065-110.576-248.948-8.861-328.668 98.913-90.906 285.878-45.766 313.203 93.389-61.965 0.96-124.053 0-186.018 2.066-0.165 37.418-0.309 74.858-0.165 112.276zM931.146 495.816c30.91-0.313 61.965-0.313 92.854-0.626v-93.577c-30.89-0.292-61.8-0.459-92.854-0.793-0.309-31.45-0.453-62.733-0.618-94.036h-92.545c-0.309 31.304-0.309 62.587-0.639 93.89-30.89 0.313-61.944 0.647-92.854 0.939v93.577c30.91 0.313 61.8 0.48 92.854 0.626 0.165 31.45 0.495 62.754 0.783 94.036h92.401c0.165-31.283 0.309-62.733 0.618-94.036z" />
<glyph unicode="&#xe93f;" glyph-name="message" d="M1023.186 721.644l-431.59-386.455c-45.319-40.566-114.688-40.632-160.007 0l-430.763 386.048c-0.459-3.453-0.827-7.076-0.827-10.673v-525.115c0-43.638 35.144-78.782 78.769-78.782h866.475c43.638 0 78.756 35.144 78.756 78.769v525.128c0 3.728-0.315 7.496-0.814 11.080zM78.769 789.333c-10.45 0-20.427-2.074-29.538-5.737l434.872-389.75c18.537-16.607 36.405-16.62 54.981 0l435.686 389.75c-9.111 3.663-19.088 5.737-29.525 5.737h-866.475z" />
<glyph unicode="&#xe940;" glyph-name="modify" d="M313.105 160.746c-14.987-3.996-30.977 0.179-42.268 11.236-11.036 11.104-15.328 27.18-11.143 42.23l50.106 182.202c1.132 4.559 3.017 7.88 5.678 10.521l488.789 485.109c37.434 37.144 100.278 33.785 140.326-5.977l46.124-45.85c40.15-39.749 43.554-102.492 6.021-139.64l-488.787-485.1c-3.933-3.903-9.223-5.998-14.635-5.943l-180.21-48.787zM967.903 729.669c20.609 20.397 18.619 57.062-6.034 81.469l-46.145 45.871c-24.719 24.543-61.877 26.529-82.606 5.961l-484.88-481.229-49.067-178.445c-0.233-0.837 0.003-1.722 0.518-2.242 0.74-0.725 1.822-1.007 2.787-0.75l181.566 49.154 483.862 480.212zM344.331 406.935l163.618-162.386c19.382-19.236-9.472-48.308-28.853-29.072l-163.618 162.386c-19.382 19.236 9.472 48.308 28.853 29.072zM743.991 798.546l157.314-158.542c19.234-19.384-9.842-48.234-29.075-28.85l-157.314 158.542c-19.234 19.384 9.842 48.234 29.075 28.85zM606.261 939.52c11.311 0 20.48-9.169 20.48-20.48s-9.169-20.48-20.48-20.48h-488.163c-42.644 0-77.138-34.238-77.138-76.409v-748.301c0-42.172 34.494-76.409 77.138-76.409h787.798c42.645 0 77.145 34.239 77.145 76.409v444.205c0 11.311 9.169 20.48 20.48 20.48s20.48-9.169 20.48-20.48v-444.205c0-64.861-52.906-117.369-118.105-117.369h-787.798c-65.197 0-118.098 52.507-118.098 117.369v748.301c0 64.862 52.901 117.369 118.098 117.369h488.163z" />
<glyph unicode="&#xe941;" glyph-name="need-help" d="M512 282.755c-3.622 0-7.18 0.975-10.325 2.792-6.269 3.657-10.086 10.438-10 17.662v15.956c0 26.593 9.219 52.876 26.68 75.991 13.947 18.482 30.671 33.596 46.831 48.223l5.857 5.274c33.773 30.738 65.724 59.769 65.226 115.149 0 66.24-58.067 124.413-124.269 124.413s-124.269-58.173-124.269-124.501c0.087-7.335-3.731-14.094-10-17.773-3.145-1.817-6.724-2.792-10.347-2.792s-7.18 0.975-10.325 2.792c-6.269 3.679-10.086 10.438-10 17.64 0 89.487 75.529 164.968 164.94 164.968 89.151 0 164.702-75.281 164.94-164.391 0.39-67.946-40.302-110.606-78.479-145.311l-3.688-3.368c-17.028-15.446-33.101-30.051-43.925-44.433-13.145-17.396-18.524-32.422-18.524-51.879v-15.823c0.087-7.357-3.731-14.139-10-17.795-3.145-1.817-6.703-2.792-10.325-2.792zM512 153.002c-19.197 0-34.793 15.513-34.793 34.594s15.596 34.616 34.793 34.616c19.197 0 34.793-15.535 34.793-34.616s-15.596-34.594-34.793-34.594zM512 919.689c-259.883 0-471.329-211.617-471.329-471.7s211.446-471.7 471.329-471.7c259.883 0 471.329 211.617 471.329 471.7s-211.446 471.7-471.329 471.7zM512-64c-282.333 0-512 229.678-512 511.989 0 282.333 229.667 512.011 512 512.011s512-229.678 512-512.011c0-282.311-229.667-511.989-512-511.989z" />
<glyph unicode="&#xe942;" glyph-name="no-result-found" d="M980.044 137.738l-98.329 98.055c-4.026 4.014-10.584 4.014-14.606 0.003-3.998-3.989-3.998-10.427-0.003-14.411l98.329-98.055c4.026-4.014 10.579-4.015 14.611 0.002 3.992 3.983 3.992 10.423-0.002 14.406zM1008.967 94.327c-20.021-19.956-52.443-19.956-72.455 0l-98.329 98.055c-20.043 19.987-20.043 52.417 0 72.414 20.012 19.957 52.442 19.957 72.455 0l98.329-98.055c20.044-19.988 20.044-52.426 0-72.414zM838.184 235.793l-101.686 101.397c-19.336 19.281 9.586 48.286 28.922 29.004l101.686-101.397c19.336-19.281-9.586-48.286-28.922-29.004zM920.942 553.418c0-11.311-9.169-20.48-20.48-20.48s-20.48 9.169-20.48 20.48c0 69.515-24.235 135.392-67.824 188.046-7.213 8.713-5.997 21.623 2.716 28.835s21.623 5.997 28.835-2.716c49.609-59.926 77.233-135.014 77.233-214.166zM454.965 454.428l193.058 192.52c19.336 19.282 48.258-9.722 28.923-29.003l-193.058-192.52c-19.336-19.282-48.258 9.722-28.923 29.003zM483.887 646.948l193.058-192.52c19.336-19.282-9.587-48.285-28.923-29.003l-193.058 192.52c-19.336 19.282 9.587 48.285 28.923 29.003zM847.135 536.183c0-154.674-126.13-280.451-281.183-280.451-155.049 0-281.183 125.779-281.183 280.451s126.135 280.457 281.183 280.457c155.051 0 281.183-125.782 281.183-280.457zM806.175 536.183c0 132.028-107.767 239.497-240.223 239.497-132.452 0-240.223-107.471-240.223-239.497 0-132.024 107.77-239.491 240.223-239.491 132.457 0 240.223 107.464 240.223 239.491zM254.9 280.44h102.487c27.307 0 27.307-40.96 0-40.96h-102.487c-27.307 0-27.307 40.96 0 40.96zM84.255 280.44h102.492c27.307 0 27.307-40.96 0-40.96h-102.492c-27.307 0-27.307 40.96 0 40.96zM84.255 377.995h191.083c27.307 0 27.307-40.96 0-40.96h-191.083c-27.307 0-27.307 40.96 0 40.96zM578.615 274.381c0 11.311 9.169 20.48 20.48 20.48s20.48-9.169 20.48-20.48v-60.737c0-35.965-29.216-65.103-65.221-65.103h-489.126c-36.010 0-65.227 29.136-65.227 65.103v281.472c0 35.966 29.217 65.097 65.227 65.097h237.195c11.311 0 20.48-9.169 20.48-20.48s-9.169-20.48-20.48-20.48h-237.195c-13.416 0-24.267-10.819-24.267-24.137v-281.472c0-13.319 10.853-24.143 24.267-24.143h489.126c13.408 0 24.261 10.824 24.261 24.143v60.737z" />
<glyph unicode="&#xe943;" glyph-name="refund-policy" d="M0.202 602.722c-0.797 5.635 0.722 11.673 5.228 16.584l306.476 334.019c4.579 4.991 10.516 6.996 16.223 6.634h200.591c100.841 0 182.615-81.545 182.615-182.16v-144.535c0-11.311-9.169-20.48-20.48-20.48s-20.48 9.169-20.48 20.48v144.535c0 77.968-63.41 141.2-141.655 141.2h-181.244v-164.421c0-93.645-75.534-169.597-168.775-169.597h-137.539v-608.061h629.214v28.452c0 11.311 9.169 20.48 20.48 20.48s20.48-9.169 20.48-20.48v-48.932c0-11.311-9.169-20.48-20.48-20.48h-670.174c-11.311 0-20.48 9.169-20.48 20.48v646.283zM67.253 625.94h111.448c70.569 0 127.815 57.563 127.815 128.637v132.255l-239.264-260.892zM752.49 585.628c149.958 0 271.55-121.252 271.55-270.846s-121.593-270.846-271.55-270.846c-149.958 0-271.55 121.252-271.55 270.846s121.593 270.846 271.55 270.846zM752.49 544.668c-127.362 0-230.59-102.939-230.59-229.886s103.229-229.886 230.59-229.886c127.362 0 230.59 102.939 230.59 229.886s-103.229 229.886-230.59 229.886zM125.455 157.816h316.463c27.307 0 27.307-40.96 0-40.96h-316.463c-27.307 0-27.307 40.96 0 40.96zM125.455 303.946h264.579c27.307 0 27.307-40.96 0-40.96h-264.579c-27.307 0-27.307 40.96 0 40.96zM125.455 450.083h290.525c27.307 0 27.307-40.96 0-40.96h-290.525c-27.307 0-27.307 40.96 0 40.96zM844.2 427.52v-24.924h-58.86c8.704-8.827 14.193-19.886 16.384-32.993h42.476v-24.924h-42.004c-4.956-37.581-34.673-61.42-80.527-64.799 29.368-30.597 61.010-68.198 90.972-104.489l3.973-4.813h-44.646l-0.881 1.044c-30.228 35.983-58.204 68.833-94.454 106.906l-0.799 0.86v27.75h24.166c36.291 0 59.187 13.64 63.406 37.54h-87.572v24.924h85.852c-6.328 18.084-24.965 27.259-55.501 27.259h-30.351v30.659h168.366z" />
<glyph unicode="&#xe944;" glyph-name="was-this-helpful" horiz-adv-x="1045" d="M536.737 312.676c-1.466-0.098-2.943-0.057-4.401 0.121-0.559-0.142-1.217-0.306-1.994-0.495-10.849-2.643-21.814-4.354-33.312-5.286-18.597-1.507-31.432-1.191-67.254 0.803-5.43 0.302-9.039 0.496-12.766 0.68-39.312 1.942-64.548 28.555-64.771 68.31-0.569 102.081-0.587 192.763 0.041 279.464 0.306 43.322 22.488 72.578 63.952 76.18 60.086 5.224 80.197 2.747 117.73-19.102 1.046 0.054 2.095 0.038 3.139-0.047 1.236 0.231 2.855 0.436 4.605 0.728 5.679 0.948 12.045 2.731 14.543 3.841 52.763 23.492 72.067 46.673 73.745 95.929 0.373 10.87-0.436 22.324-2.699 43.188-0.212 1.952-0.212 1.952-0.427 3.913-2.479 22.665-3.307 32.166-3.44 43.94-0.322 27.486 14.531 44.357 41.51 50.823 81.63 19.579 148.936-28.912 153.874-111.994 1.735-29.046 2.027-57.277 0.777-84.641-0.413-9.009-3.321-5.901 4.908-5.545 30.721 1.319 60.623 1.258 106.080 0.223 76.377-1.748 124.88-60.939 112.358-136.261-10.428-62.707-20.681-126.921-34.010-212.348-11.224-72.010-58.054-112.785-130.872-113.090-51.909-0.221-195.119-0.366-260.338-0.297-36.837 0.030-59.156 4.44-80.977 20.959zM556.076 350.079c1.747-1.036 3.507-2.241 5.3-3.628 12.869-9.951 27.52-12.915 56.378-12.938 65.155-0.069 208.297 0.076 260.121 0.296 52.178 0.218 81.673 25.9 89.752 77.735 13.35 85.556 23.622 149.894 34.077 212.763 8.367 50.329-21.237 86.457-72.083 87.62-44.611 1.016-73.741 1.075-103.326-0.195-33.388-1.445-49.97 16.28-48.46 49.213 1.181 25.846 0.904 52.613-0.746 80.244-3.379 56.845-45.805 87.412-102.407 73.836-8.932-2.141-9.542-2.834-9.462-9.697 0.112-9.917 0.872-18.642 3.195-39.877 0.215-1.969 0.215-1.969 0.431-3.95 2.472-22.785 3.38-35.658 2.919-49.124-2.287-67.12-32.354-103.226-98.528-132.689-5.041-2.241-10.956-4.213-17.161-5.658v-323.951zM514.28 351.537v324.906c-29.645 17.456-41.414 18.981-94.43 14.372-18.044-1.568-25.611-11.549-25.776-34.84-0.626-86.509-0.608-177.018-0.040-278.931 0.099-17.649 7.976-25.956 25.040-26.799 3.835-0.19 7.516-0.387 13.025-0.694 33.817-1.882 45.556-2.172 61.554-0.875 7.148 0.579 13.961 1.515 20.626 2.861zM515.567 145.198c3.213 1.892 6.874 2.889 10.603 2.889h264.345c52.927 0 98.199 37.352 108.676 88.525 2.315 11.307 13.358 18.597 24.665 16.282s18.597-13.358 16.282-24.665c-14.44-70.53-76.749-121.938-149.623-121.938h-258.65l-284.336-167.402c-13.931-8.202-31.5 1.842-31.5 18.009v149.393h-63.306c-84.345 0-152.722 68.36-152.722 152.688v375.5c0 84.328 68.377 152.688 152.722 152.688h150.541c11.542 0 20.898-9.356 20.898-20.898s-9.356-20.898-20.898-20.898h-150.541c-61.264 0-110.926-49.649-110.926-110.892v-375.5c0-61.243 49.662-110.892 110.926-110.892h84.204c11.542 0 20.898-9.356 20.898-20.898v-133.737l257.743 151.745z" />
<glyph unicode="&#xe945;" glyph-name="whatsapp" d="M304.61 740.571l93.565-154.46-38.95-38.515c-8.147-8.217-9.792-20.875-4.009-30.889 59.434-102.849 129.867-182.858 228.495-226.291 9.676-4.288 20.998-2.208 28.502 5.225l41.366 41.327 150.993-94.286c-16.719-37.591-38.513-59.981-63.443-73.012-28.875-15.111-64.15-17.987-104.41-9.629-80.508 16.677-177.761 79.881-257.010 160.866-79.249 80.998-140.585 179.482-156.211 259.581-7.826 40.056-4.369 74.553 10.435 101.912 12.748 23.546 34.401 43.715 70.678 58.171zM512 960c-282.995 0-512-228.867-512-511.994 0-106.779 32.563-205.545 90.406-290.41 4.352-6.451 5.53-14.554 3.2-21.991l-52.006-174.005 170.406 58.804c7.373 2.445 15.462 1.421 21.99-2.803 79.821-51.789 175.36-81.601 278.003-81.601 283.136 0 512 228.867 512 512.006 0 283.127-228.864 511.994-512 511.994z" />
<glyph unicode="&#xe946;" glyph-name="search-new" d="M416.091 192c-194.443 0-352.077 158.416-352.077 352 0 195.2 157.634 352 352.077 352s352.077-156.8 352.077-352c0-193.584-157.634-352-352.077-352zM1015.070-11.2l-284.078 283.2c62.99 73.6 101.19 168 101.19 272 0 230.416-186.297 416-416.091 416s-416.091-185.584-416.091-416c0-230.4 186.297-416 416.091-416 103.927 0 198.876 38.416 271.803 100.8l284.078-283.2c11.907-12.8 31.207-12.8 43.097 0 11.907 11.2 11.907 30.4 0 43.2z" />
<glyph unicode="&#xe947;" glyph-name="icPackage" d="M370.209 796.618l10.981-0.174h272.428v87.323h-283.408v-87.149zM119.743 753.065c-42.093 0-76.342-34.162-76.342-76.168v-141.682h937.025v141.682c0 42.006-34.25 76.168-76.342 76.168h-784.34zM43.4 88.598c0-42.028 34.25-76.19 76.342-76.19h76.342v479.276h-152.685v-403.086zM239.485 12.408h544.855v479.276h-544.855v-479.276zM827.741 12.408h76.342c42.093 0 76.342 34.162 76.342 76.19v403.086h-152.685v-479.276zM119.743-31.145c-66.015 0-119.743 53.727-119.743 119.743v588.299c0 66.015 53.727 119.721 119.743 119.721h207.066v109.002c0 11.961 9.739 21.7 21.7 21.7h326.809c11.961 0 21.7-9.739 21.7-21.7v-109.002h207.066c66.015 0 119.743-53.706 119.743-119.721v-588.299c0-66.015-53.727-119.743-119.743-119.743h-784.34z" />
<glyph unicode="&#xe948;" glyph-name="sixe-sme1" d="M360.727 894.836c-25.384 0-46.545-22.573-46.545-49.648v-74.473h-209.455c-57.616 0-104.727-50.252-104.727-111.709v-546.134c0-61.457 47.111-111.709 104.727-111.709h814.545c57.616 0 104.727 50.252 104.727 111.709v546.134c0 61.457-47.111 111.709-104.727 111.709h-209.455v74.473c0 27.076-21.162 49.648-46.545 49.648h-302.545zM360.727 845.188h302.545v-74.473h-302.545v74.473zM104.727 721.067h69.455v-670.255h-69.455c-32.635 0-58.182 27.25-58.182 62.061v546.134c0 34.811 25.565 63.23 58.182 62.061zM220.728 721.067h582.545v-670.255h-582.545v670.255zM849.819 721.067h69.454c32.635 0 58.182-27.25 58.182-62.061v-546.134c0-34.811-25.617-59.753-58.182-62.061h-69.454v670.255z" />
<glyph unicode="&#xe949;" glyph-name="icPrintItinerary" horiz-adv-x="1004" d="M259.101 915.763v-303.455c0-11.311-9.169-20.48-20.48-20.48s-20.48 9.169-20.48 20.48v323.935c0 11.311 9.169 20.48 20.48 20.48h523.352c11.311 0 20.48-9.169 20.48-20.48v-323.935c0-11.311-9.169-20.48-20.48-20.48s-20.48 9.169-20.48 20.48v303.455h-482.392zM259.101 221.082v-241.079h482.392v241.079h-482.392zM238.621 262.042h523.352c11.311 0 20.48-9.169 20.48-20.48v-282.039c0-11.311-9.169-20.48-20.48-20.48h-523.352c-11.311 0-20.48 9.169-20.48 20.48v282.039c0 11.311 9.169 20.48 20.48 20.48zM40.96 109.436h197.661c11.311 0 20.48-9.169 20.48-20.48s-9.169-20.48-20.48-20.48h-218.141c-11.311 0-20.48 9.169-20.48 20.48v446.471c0.326 53.608 43.876 96.893 97.484 96.892h805.624c53.609 0.001 97.159-43.284 97.485-97.017v-446.347c0-11.311-9.169-20.48-20.48-20.48h-218.141c-11.311 0-20.48 9.169-20.48 20.48s9.169 20.48 20.48 20.48h197.661v425.742c-0.189 31.084-25.441 56.182-56.525 56.181h-805.625c-31.084 0.001-56.336-25.098-56.524-56.057v-425.867zM173.085 417.456c-11.311 0-20.48 9.169-20.48 20.48s9.169 20.48 20.48 20.48h87.303c11.311 0 20.48-9.169 20.48-20.48s-9.169-20.48-20.48-20.48h-87.303z" />
<glyph unicode="&#xe94a;" glyph-name="icModify" d="M313.105 160.746c-14.987-3.996-30.977 0.179-42.268 11.236-11.036 11.104-15.328 27.18-11.143 42.23l50.106 182.202c1.132 4.559 3.017 7.88 5.678 10.521l488.789 485.109c37.434 37.144 100.278 33.785 140.326-5.977l46.124-45.85c40.15-39.749 43.554-102.492 6.021-139.64l-488.787-485.1c-3.933-3.903-9.223-5.998-14.635-5.943l-180.21-48.787zM967.903 729.669c20.609 20.397 18.619 57.062-6.034 81.469l-46.145 45.871c-24.719 24.543-61.877 26.529-82.606 5.961l-484.88-481.229-49.067-178.445c-0.233-0.837 0.003-1.722 0.518-2.242 0.74-0.725 1.822-1.007 2.787-0.75l181.566 49.154 483.862 480.212zM344.331 406.935l163.618-162.386c19.382-19.236-9.472-48.308-28.853-29.072l-163.618 162.386c-19.382 19.236 9.472 48.308 28.853 29.072zM743.991 798.546l157.314-158.542c19.234-19.384-9.842-48.234-29.075-28.85l-157.314 158.542c-19.234 19.384 9.842 48.234 29.075 28.85zM606.261 939.52c11.311 0 20.48-9.169 20.48-20.48s-9.169-20.48-20.48-20.48h-488.163c-42.644 0-77.138-34.238-77.138-76.409v-748.301c0-42.172 34.494-76.409 77.138-76.409h787.798c42.645 0 77.145 34.239 77.145 76.409v444.205c0 11.311 9.169 20.48 20.48 20.48s20.48-9.169 20.48-20.48v-444.205c0-64.861-52.906-117.369-118.105-117.369h-787.798c-65.197 0-118.098 52.507-118.098 117.369v748.301c0 64.862 52.901 117.369 118.098 117.369h488.163z" />
<glyph unicode="&#xe94b;" glyph-name="icAddToBookingList" d="M141.269 474.36h39.747v-314.573h-39.747v314.573zM181.015 474.36v-314.573h-39.747v314.573h39.747zM0 297.364v39.425h322.284v-39.425h-322.284zM0 336.789h322.284v-39.425h-322.284v39.425zM1024 126.379v-19.712h-625.080v19.712c0 168.722 140.001 305.371 312.54 305.371 172.543 0 312.54-136.647 312.54-305.371zM711.46 392.326c-143.922 0-261.71-108.623-272.055-246.235h544.11c-10.345 137.613-128.129 246.235-272.055 246.235zM863.046 602.267c0 81.47-67.795 147.641-151.586 147.641-83.786 0-151.58-66.173-151.58-147.641s67.794-147.641 151.58-147.641c83.791 0 151.586 66.172 151.586 147.641zM902.792 602.267c0-103.386-85.732-187.066-191.332-187.066-105.595 0-191.327 83.68-191.327 187.066s85.731 187.066 191.327 187.066c105.6 0 191.332-83.679 191.332-187.066z" />
<glyph unicode="&#xe94c;" glyph-name="icFlightCancelled" d="M983.040 270.54c0 115.173-94.45 208.574-210.979 208.574-116.533 0-210.979-93.399-210.979-208.574 0-115.184 94.443-208.58 210.979-208.58 116.532 0 210.979 93.398 210.979 208.58zM1024 270.54c0-137.647-112.813-249.206-251.939-249.206-139.13 0-251.939 111.558-251.939 249.206 0 137.64 112.812 249.2 251.939 249.2 139.123 0 251.939-111.563 251.939-249.2zM725.403 499.38c5.076-10.026 0.996-22.234-9.111-27.269s-22.417-0.988-27.493 9.037l-30.363 59.973c-4.604 9.095-1.713 20.165 6.764 25.899 0.948 0.641 2.937 2.048 5.817 4.187 4.922 3.656 10.44 7.98 16.401 12.937 17.095 14.213 34.207 30.563 50.136 48.747 54.634 62.367 81.526 129.185 67.767 197.51-69.164 13.636-136.787-12.973-199.888-67.028-18.389-15.753-34.922-32.674-49.294-49.579-5.012-5.895-9.384-11.35-13.081-16.217-2.163-2.847-3.585-4.813-4.232-5.75-5.781-8.359-16.891-11.211-26.036-6.684l-259.178 128.328-61.837-61.15 189.031-195.086c7.167-7.397 7.649-18.933 1.123-26.892-1.271-1.55-1.271-1.55-6.986-8.517-5.557-6.773-11.751-14.319-18.425-22.446-19.069-23.221-38.163-46.442-56.020-68.116-51.177-62.116-79.522-96.217-83.69-100.338-12.144-12-26.267-9.495-88.849 5.93-4.116 1.015-8.341 2.074-12.66 3.175-13.38 3.41-27.083 7.058-40.376 10.705-0.962 0.264-1.897 0.521-2.803 0.771l-23.706-36.607 135.995-93.19c3.216-2.63 4.302-3.842 5.232-5.168l94.281-134.555 37.090 23.488c-0.243 0.863-0.493 1.753-0.75 2.668-3.688 13.144-7.377 26.695-10.825 39.926-1.114 4.274-2.186 8.454-3.212 12.527-15.625 61.997-18.154 75.943-5.966 87.995 4.159 4.113 38.641 32.143 100.726 82.165 22.647 18.246 46.128 37.127 69.608 55.985 8.218 6.6 15.849 12.725 22.698 18.22 7.045 5.652 7.045 5.652 8.612 6.908 8.008 6.42 19.576 5.946 27.022-1.109l42.453-40.224c8.179-7.749 8.475-20.608 0.662-28.72s-20.777-8.406-28.955-0.657l-29.43 27.885c-5.383-4.32-11.172-8.968-17.286-13.878-23.465-18.845-46.93-37.714-68.829-55.357-46.167-37.197-80.29-64.872-93.034-75.453 0.32-2.716 0.846-6.125 1.571-10.121 2.013-11.1 5.413-26.045 9.885-43.788 0.999-3.965 2.045-8.042 3.132-12.214 3.378-12.965 7.003-26.28 10.628-39.199 2.174-7.747 3.861-13.629 4.818-16.907 2.525-8.653-0.997-17.922-8.651-22.769l-66.523-42.127c-9.271-5.871-21.561-3.43-27.838 5.529l-103.415 147.591-149.272 102.288c-9.085 6.226-11.558 18.475-5.591 27.69l42.6 65.784c4.89 7.552 14.198 11.025 22.895 8.543 3.316-0.946 9.265-2.615 17.1-4.766 13.066-3.586 26.533-7.171 39.646-10.512 4.217-1.075 8.338-2.108 12.346-3.096 17.946-4.423 33.062-7.788 44.292-9.78 4.083-0.724 7.561-1.249 10.326-1.565 10.68 12.579 38.681 46.34 75.732 91.311 18.436 22.377 37.516 45.582 56.573 68.788 4.937 6.012 9.611 11.706 13.959 17.003l-190.41 196.509c-7.736 7.984-7.6 20.643 0.306 28.461l86.506 85.545c6.231 6.162 15.734 7.687 23.607 3.789l257.075-127.287c2.646 3.309 5.657 6.968 9.022 10.926 15.688 18.452 33.701 36.888 53.834 54.135 75.897 65.017 160.262 96.158 248.91 72.848 3.483-0.916 6.66-2.727 9.212-5.25 2.608-2.579 4.446-5.736 5.377-9.199 23.589-87.727-7.919-171.198-73.686-246.274-17.441-19.91-36.084-37.722-54.743-53.236-3.978-3.307-7.657-6.268-10.986-8.873l22.659-44.755zM767.505 303.716l65.247 65.247c19.151 19.151 48.115-9.812 28.963-28.963l-64.598-64.598 65.129-65.129c19.309-19.309-9.419-48.036-28.727-28.727l-65.129 65.129-65.247-65.247c-19.151-19.151-48.115 9.812-28.963 28.963l64.598 64.598-65.129 65.129c-19.309 19.309 9.419 48.036 28.727 28.727l65.129-65.129zM334.219 226.851c0.007 0.268-0.006 0.544-0.025 0.846 0.010-0.162 0.021-0.329 0.034-0.501l-0.009-0.345z" />
<glyph unicode="&#xe94d;" glyph-name="icNote" d="M179.706 769.412h642.8c27.078 0 27.078-40.616 0-40.616h-642.8c-27.078 0-27.078 40.616 0 40.616zM179.706 407.486h244.054c27.078 0 27.078-40.616 0-40.616h-244.054c-27.078 0-27.078 40.616 0 40.616zM179.706 587.166h642.8c27.078 0 27.078-40.616 0-40.616h-642.8c-27.078 0-27.078 40.616 0 40.616zM1003.651 408.997c18.093 0 27.153-21.875 14.36-34.668l-432.34-432.34c-12.793-12.793-34.668-3.733-34.668 14.36v432.34c0 11.216 9.092 20.308 20.308 20.308h432.34zM591.619 368.381v-363.004l363.004 363.004h-363.004zM983.343 397.101v361.344c0 88.884-72.054 160.938-160.938 160.938h-620.85c-88.884 0-160.938-72.054-160.938-160.938v-620.85c0-88.884 72.054-160.938 160.938-160.938h361.344l420.444 420.444zM571.311-63.959h-369.756c-111.316 0-201.555 90.239-201.555 201.555v620.85c0 111.316 90.239 201.555 201.555 201.555h620.85c111.316 0 201.555-90.239 201.555-201.555v-369.756c0-5.386-2.14-10.552-5.948-14.36l-432.34-432.34c-3.809-3.809-8.974-5.948-14.36-5.948z" />
<glyph unicode="&#xe94e;" glyph-name="icSplitPnr" d="M282.896 311.904c-9.517 13.618-13.911 30.824-10.947 48.508 6.015 35.839 39.981 59.993 75.847 54.010 35.879-5.994 60.138-39.895 54.114-75.753-2.964-17.678-12.73-32.513-26.17-42.29 19.113-18.388 29.121-45.561 24.398-73.682l-3.231-19.234-164.381 27.421 3.239 19.298c4.72 28.119 23.055 50.555 47.131 61.722zM300.304 653.301c-12.189 12.158-19.732 28.961-19.732 47.532 0 37.138 30.16 67.204 67.315 67.204s67.315-30.066 67.315-67.204c0-18.57-7.543-35.372-19.732-47.531 22.744-15.286 37.713-41.222 37.713-70.661v-19.538h-170.587v19.538c0 29.439 14.966 55.375 37.708 70.661zM659.177 148.152l199.899-33.343c41.822-6.972 81.357 21.142 88.339 62.744l9.75 58.12c-47.866 16.34-80.251 61.575-80.195 112.066l-721.624 119.228c-15.452-48.202-56.411-79.961-105.507-79.958l-9.764-58.173c-6.979-41.585 21.192-80.956 62.99-87.924l517.635-86.341 4.224 25.175 38.467-6.478-4.214-25.115zM131.692 510.479l788.639-130.3-3.244-19.328c-7.257-43.237 22.032-84.17 65.489-91.42l19.267-3.214-15.961-95.141c-10.557-62.901-70.202-105.316-133.211-94.812l-756.011 126.102c-63.033 10.508-105.613 70.017-95.052 132.948l15.959 95.082 19.21-3.207c41.969-7.006 77.169 20.395 84.695 65.237l3.224 19.207 0.606-0.1v18.482c0 43.848-35.681 79.421-79.759 79.421h-19.503v96.439c0 63.792 51.827 115.457 115.722 115.457h766.516c63.895 0 115.722-51.665 115.722-115.457v-96.439h-19.503c-44.074 0-79.759-35.575-79.759-79.421v-19.538h-793.046zM664.275 549.555v21.958h39.007v-21.958h184.056c8.283 49.832 47.723 89.138 97.656 97.369v58.953c0 42.168-34.321 76.381-76.715 76.381h-204.996v-15.374h-39.007v15.374h-522.513c-42.395 0-76.715-34.213-76.715-76.381v-58.952c49.936-8.23 89.373-47.536 97.656-97.369h501.573zM664.275 701.754h39.007v-65.439h-39.007v65.439zM661.646 377.973l38.467-6.479-5.739-34.194-38.467 6.479 5.739 34.194zM645.581 282.243l38.467-6.481-10.379-61.824-38.467 6.481 10.379 61.824zM347.887 628.694c-18.554 0-34.54-10.856-41.924-26.516h83.852c-7.385 15.659-23.373 26.516-41.928 26.516zM376.196 700.833c0 15.514-12.654 28.128-28.308 28.128s-28.308-12.614-28.308-28.128c0-15.509 12.654-28.122 28.308-28.122s28.308 12.614 28.308 28.122zM325.285 279.931c-17.202 2.869-33.731-4.529-43.287-17.686l78.406-13.079c-4.718 15.54-17.919 27.896-35.119 30.766zM363.443 345.144c2.44 14.52-7.411 28.287-22.058 30.734-14.674 2.448-28.527-7.404-30.967-21.941-2.434-14.522 7.415-28.288 22.068-30.729 14.671-2.45 28.521 7.398 30.958 21.936z" />
<glyph unicode="&#xe94f;" glyph-name="icTerminal-Information" d="M859.831 14.537c0-25.748-20.996-46.537-46.857-46.537h-218.886c-25.86 0-46.857 20.789-46.857 46.537v224.381h-7.867c-25.86 0-46.857 20.789-46.857 46.537v215.512c0 36.76 19.759 70.441 51.495 87.735l8.475 4.731c46.124 26.143 80.55 36.563 151.057 36.563s104.932-10.42 150.975-36.517l8.341-4.677c31.937-17.386 51.704-51.066 51.704-87.835v-215.512c0-25.748-20.996-46.537-46.857-46.537h-7.867v-224.381zM867.697 277.809c4.391 0 7.867 3.441 7.867 7.646v215.512c0 22.629-12.056 43.171-31.603 53.814l-8.633 4.839c-40.609 23.017-68.587 31.485-131.794 31.485s-91.185-8.468-131.903-31.547l-8.759-4.889c-19.319-10.528-31.374-31.076-31.374-53.702v-215.512c0-4.205 3.476-7.646 7.867-7.646h46.857v-263.272c0-4.205 3.476-7.646 7.867-7.646h218.886c4.391 0 7.867 3.441 7.867 7.646v263.272h46.857zM703.528 618.191c-71.092 0-128.935 57.277-128.935 127.813 0 70.542 57.836 127.813 128.935 127.813s128.941-57.271 128.941-127.813c0-70.537-57.844-127.813-128.941-127.813zM703.528 657.082c49.628 0 89.951 39.928 89.951 88.922 0 48.998-40.321 88.922-89.951 88.922s-89.945-39.922-89.945-88.922c0-48.993 40.323-88.922 89.945-88.922zM703.528 618.191c-71.092 0-128.935 57.277-128.935 127.813 0 70.542 57.836 127.813 128.935 127.813s128.941-57.271 128.941-127.813c0-70.537-57.844-127.813-128.941-127.813zM703.528 657.082c49.628 0 89.951 39.928 89.951 88.922 0 48.998-40.321 88.922-89.951 88.922s-89.945-39.922-89.945-88.922c0-48.993 40.323-88.922 89.945-88.922zM914.554 401.463h-422.045v99.505c0 36.76 19.759 70.441 51.495 87.735l8.475 4.731c46.124 26.143 80.55 36.563 151.057 36.563s104.932-10.42 150.975-36.517l8.341-4.677c31.937-17.386 51.704-51.066 51.704-87.835v-99.505zM875.564 500.968c0 22.629-12.056 43.171-31.603 53.814l-8.633 4.839c-40.609 23.017-68.587 31.485-131.794 31.485s-91.185-8.468-131.903-31.547l-8.759-4.889c-19.319-10.528-31.374-31.076-31.374-53.702v-60.614h344.065v60.614zM476.775 401.463h-422.045v153.689c0 36.756 19.753 70.433 51.494 87.741l8.423 4.703c6.901 3.908 10.146 5.709 14.503 7.995 36.409 19.105 75.254 28.583 136.606 28.583 61.346 0 100.182-9.476 136.596-28.583 4.356-2.285 7.591-4.081 14.41-7.942l8.34-4.662c31.919-17.401 51.674-51.079 51.674-87.836v-153.689zM437.785 555.151c0 22.625-12.052 43.171-31.562 53.808l-8.613 4.813c-6.56 3.714-9.538 5.367-13.41 7.399-30.79 16.155-63.394 24.111-118.445 24.111-55.056 0-87.668-7.957-118.453-24.111-3.873-2.032-6.859-3.69-13.509-7.455l-8.696-4.855c-19.326-10.539-31.378-31.087-31.378-53.711v-114.797h344.065v114.797zM265.756 672.374c-71.098 0-128.941 57.276-128.941 127.813 0 70.542 57.842 127.813 128.941 127.813 71.095 0 128.941-57.273 128.941-127.813 0-70.535-57.848-127.813-128.941-127.813zM265.756 711.265c49.624 0 89.951 39.93 89.951 88.922 0 48.996-40.325 88.922-89.951 88.922-49.63 0-89.951-39.924-89.951-88.922 0-48.994 40.324-88.922 89.951-88.922zM528.893 440.354l60.334-418.17h-542.371c-25.855 0-46.857 20.791-46.857 46.537v325.095c0 25.747 21.001 46.537 46.857 46.537h482.037zM46.857 401.463c-4.387 0-7.867-3.444-7.867-7.646v-325.095c0-4.202 3.479-7.646 7.867-7.646h497.368l-49.112 340.388h-448.257zM817.834 22.184l60.334 418.17h98.975c25.86 0 46.857-20.789 46.857-46.537v-325.095c0-25.748-20.996-46.537-46.857-46.537h-159.309zM977.143 61.075c4.391 0 7.867 3.441 7.867 7.646v325.095c0 4.205-3.476 7.646-7.867 7.646h-65.195l-49.112-340.388h114.306z" />
</font>
</defs>
</svg>
